<mxfile host="Electron" agent="Mozilla/5.0 (Macintosh; Intel Mac OS X 10_15_7) AppleWebKit/537.36 (KHTML, like Gecko) draw.io/26.0.9 Chrome/128.0.6613.186 Electron/32.2.5 Safari/537.36" version="26.0.9">
  <diagram name="Seite-1" id="FpIdbtyQ39IybbvDgelw">
    <mxGraphModel dx="1567" dy="973" grid="1" gridSize="10" guides="1" tooltips="1" connect="1" arrows="1" fold="1" page="1" pageScale="1" pageWidth="1169" pageHeight="827" math="0" shadow="0">
      <root>
        <mxCell id="0" />
        <mxCell id="1" parent="0" />
        <mxCell id="F_J2_1nYCTe2_NX2WGGC-35" value="" style="rounded=1;whiteSpace=wrap;html=1;strokeColor=#0070F2;fillColor=#EBF8FF;arcSize=24;absoluteArcSize=1;imageWidth=64;imageHeight=64;strokeWidth=1.5;" parent="1" vertex="1">
          <mxGeometry x="95" y="20" width="850" height="510" as="geometry" />
        </mxCell>
        <mxCell id="F_J2_1nYCTe2_NX2WGGC-37" value="" style="rounded=1;whiteSpace=wrap;html=1;strokeColor=#0070F2;strokeWidth=1.5;arcSize=24;fillColor=#FFFFFF;perimeterSpacing=0;absoluteArcSize=1;" parent="1" vertex="1">
          <mxGeometry x="113.55" y="74.13" width="261.45" height="435.87" as="geometry" />
        </mxCell>
        <mxCell id="F_J2_1nYCTe2_NX2WGGC-38" value="&lt;font face=&quot;arial&quot; style=&quot;font-size: 16px;&quot;&gt;&lt;b style=&quot;font-size: 16px;&quot;&gt;Subaccount&lt;/b&gt;&lt;/font&gt;&lt;div&gt;&lt;font face=&quot;arial&quot; style=&quot;font-size: 16px;&quot;&gt;&lt;b style=&quot;font-size: 16px;&quot;&gt;Integration&lt;/b&gt;&lt;/font&gt;&lt;/div&gt;" style="text;html=1;align=left;verticalAlign=middle;resizable=0;points=[];autosize=1;strokeColor=none;fillColor=none;fontSize=12;fontColor=#1d2d3e;fontFamily=Helvetica;" parent="1" vertex="1">
          <mxGeometry x="125" y="80" width="120" height="50" as="geometry" />
        </mxCell>
        <mxCell id="F_J2_1nYCTe2_NX2WGGC-36" value="" style="shape=image;verticalLabelPosition=bottom;labelBackgroundColor=default;verticalAlign=top;aspect=fixed;imageAspect=0;image=data:image/svg+xml,PHN2ZyB4bWxuczp4bGluaz0iaHR0cDovL3d3dy53My5vcmcvMTk5OS94bGluayIgeG1sbnM9Imh0dHA6Ly93d3cudzMub3JnLzIwMDAvc3ZnIiB2aWV3Qm94PSIwIDAgMTQ0Ljc0NyAzOS44MzIiIGlkPSJhIj48ZGVmcz48bGluZWFyR3JhZGllbnQgZ3JhZGllbnRVbml0cz0idXNlclNwYWNlT25Vc2UiIHkyPSIzOS44MzIiIHgyPSI0MC4yNTgiIHkxPSIwIiB4MT0iNDAuMjU4IiBpZD0iYiI+PHN0b3Agc3RvcC1jb2xvcj0iIzAwYjhmMSIgb2Zmc2V0PSIwIi8+PHN0b3Agc3RvcC1jb2xvcj0iIzAwYjVlZiIgb2Zmc2V0PSIuMDE2Ii8+PHN0b3Agc3RvcC1jb2xvcj0iIzBkOTBkOCIgb2Zmc2V0PSIuMzA4Ii8+PHN0b3Agc3RvcC1jb2xvcj0iIzE2NzVjOCIgb2Zmc2V0PSIuNTc4Ii8+PHN0b3Agc3RvcC1jb2xvcj0iIzFjNjRiZSIgb2Zmc2V0PSIuODE3Ii8+PHN0b3Agc3RvcC1jb2xvcj0iIzFlNWZiYiIgb2Zmc2V0PSIxIi8+PC9saW5lYXJHcmFkaWVudD48L2RlZnM+PHBvbHlsaW5lIGZpbGwtcnVsZT0iZXZlbm9kZCIgZmlsbD0idXJsKCNiKSIgcG9pbnRzPSIwIDM5LjgzMiA0MC42OTIgMzkuODMyIDgwLjUxNyAwIDAgMCAwIDM5LjgzMiIvPjxwYXRoIGZpbGwtcnVsZT0iZXZlbm9kZCIgZmlsbD0iI2ZmZiIgZD0ibTQ3Ljc4Miw3LjQ4OWwtNy45MjUtLjAwNXYxOC44NDVsLTYuOTI0LTE4Ljg0NWgtNi44NjVsLTUuOTEyLDE1Ljc1OWMtLjYzLTMuOTczLTQuNzQtNS4zNDUtNy45NzQtNi4zNzQtMi4xMzUtLjY4Ni00LjQwMS0xLjY5NC00LjM4LTIuODA5LjAxNy0uOTE1LDEuMjE1LTEuNzY1LDMuNTg5LTEuNjM3LDEuNTk1LjA4NCwzLjAwMS4yMTMsNS44LDEuNTYzbDIuNzUzLTQuNzk1Yy0yLjU1NS0xLjMtNi4wODYtMi4xMjEtOC45NzgtMi4xMjRoLS4wMTdjLTMuMzc0LDAtNi4xODUsMS4wOTMtNy45MjgsMi44OTQtMS4yMTQsMS4yNTgtMS44NjksMi44NTYtMS44OTYsNC42MjMtLjA0NCwyLjQzMi44NDgsNC4xNTcsMi43MjEsNS41MzMsMS41ODMsMS4xNiwzLjYwNiwxLjkxMiw1LjM5LDIuNDY1LDIuMjAxLjY4MSwzLjk5NiwxLjI3NCwzLjk3NSwyLjUzOS0uMDE2LjQ1OS0uMTkxLjg4OC0uNTIxLDEuMjM2LS41NDguNTY2LTEuMzkxLjc3OS0yLjU1NS43OTktMi4yNDQuMDQ4LTMuOTEtLjMwMy02LjU2Mi0xLjg3bC0yLjQ0OCw0Ljg2MWMyLjY0NCwxLjUwNiw1Ljc3NiwyLjM4OCw4Ljk3MiwyLjM4OGwuNDExLS4wMDZjMi43ODItLjA1LDUuMDI2LS44NDIsNi44Mi0yLjI4Ni4xMDMtLjA4MS4xOTYtLjE2Ni4yOTEtLjI1bC0uNzk1LDIuMTIzaDcuMmwxLjIwOC0zLjY3NGMxLjI2NS40MzMsMi43MDQuNjcxLDQuMjMyLjY3MSwxLjQ4NywwLDIuODg5LS4yMjksNC4xMzEtLjYzNWwxLjE2NCwzLjYzN2gxMS43NDJ2LTcuNjA3aDIuNTYxYzYuMTg4LDAsOS44NTEtMy4xNTQsOS44NTEtOC40MzYsMC01Ljg4NS0zLjU1Ny04LjU4NS0xMS4xMzItOC41ODVabS0xOC4zMTcsMTYuMTI0Yy0uOTI1LDAtMS43OTItLjE2LTIuNTM5LS40NDNsMi41MTItNy45MjZoLjA0OGwyLjQ2OCw3Ljk0OGMtLjc0Mi4yNjMtMS41ODkuNDIxLTIuNDg4LjQyMVptMTguNzgzLTQuNTUzaC0xLjc0NnYtNi4zODZoMS43NDZjMi4zMjgsMCw0LjE4NS43NzMsNC4xODUsMy4xNTEsMCwyLjQ2MS0xLjg1NywzLjIzNi00LjE4NSwzLjIzNiIvPjxwYXRoIGZpbGw9IiMwMDJhODYiIGQ9Im04MC4yMTcsNy40MDFoMTAuMDYzYzUuNTk1LDAsOC42NzQsMS45MTcsOC42NzQsNi4xNTgsMCwyLjkwMy0xLjUxMyw1LjAxNC00LjMxMSw1LjcsMy4yOS40NTgsNS4yNzgsMi41ODYsNS4yNzgsNS44OTQsMCw1LjAxNC00LjA2NCw3LjAzNy05LjE4NCw3LjAzN2gtMTAuNTIxVjcuNDAxWm0xMy45NjksNi44MjZjMC0yLjE2NC0xLjQ5Ni0yLjk3My00LjI0LTIuOTczaC01LjA0OXY2LjI5OGg0Ljg5MWMzLjIwMiwwLDQuMzk4LTEuMTYxLDQuMzk4LTMuMzI1Wm0xLjAyMSwxMC41MjFjMC0yLjM1Ny0xLjc3Ny0zLjQ2Ni00LjgzOS0zLjQ2NmgtNS40NzF2Ny4wNTVoNS41MDZjMi44MTUsMCw0LjgwNC0uNzc0LDQuODA0LTMuNTg5WiIvPjxwYXRoIGZpbGw9IiMwMDJhODYiIGQ9Im0xMDkuMDUxLDExLjVoLTcuNTgzdi00LjA5OWgxOS44NDZ2NC4wOTloLTcuNTY1djIwLjY5aC00LjY5N1YxMS41WiIvPjxwYXRoIGZpbGw9IiMwMDJhODYiIGQ9Im0xMjUuMTQ4LDcuNDAxaDEwLjUwNGM2LjE5MiwwLDkuMDk2LDMuMTg1LDkuMDk2LDcuODk5LDAsNC4zOTgtMi44MzMsOC4xNDYtOC44NSw4LjE0NmgtNi4wN3Y4Ljc0NGgtNC42OFY3LjQwMVptMTQuOTAyLDcuOTUyYzAtMi41NTEtMS42ODktMy45MjMtNC45NDQtMy45MjNoLTUuMjc4djguMDRoNS40MTljMy4yNzIsMCw0LjgwNC0xLjU4Myw0LjgwNC00LjExN1oiLz48L3N2Zz4=;strokeWidth=1.5;" parent="1" vertex="1">
          <mxGeometry x="113.54999999999995" y="38.55000000000007" width="67.25" height="18.55" as="geometry" />
        </mxCell>
        <mxCell id="F_J2_1nYCTe2_NX2WGGC-43" value="" style="rounded=1;whiteSpace=wrap;html=1;strokeColor=#0070F2;strokeWidth=1.5;arcSize=24;fillColor=#FFFFFF;perimeterSpacing=0;absoluteArcSize=1;" parent="1" vertex="1">
          <mxGeometry x="385" y="74.13" width="540" height="205.87" as="geometry" />
        </mxCell>
        <mxCell id="F_J2_1nYCTe2_NX2WGGC-44" value="" style="rounded=1;whiteSpace=wrap;html=1;strokeColor=#0070F2;strokeWidth=1.5;arcSize=24;fillColor=#FFFFFF;perimeterSpacing=0;absoluteArcSize=1;" parent="1" vertex="1">
          <mxGeometry x="385" y="300" width="540" height="210" as="geometry" />
        </mxCell>
        <mxCell id="F_J2_1nYCTe2_NX2WGGC-45" value="&lt;font face=&quot;arial&quot; style=&quot;font-size: 16px;&quot;&gt;&lt;b style=&quot;font-size: 16px;&quot;&gt;Subaccount&lt;/b&gt;&lt;/font&gt;&lt;div&gt;&lt;font face=&quot;arial&quot;&gt;&lt;span style=&quot;font-size: 16px;&quot;&gt;&lt;b&gt;Process Automation&lt;/b&gt;&lt;/span&gt;&lt;/font&gt;&lt;/div&gt;" style="text;html=1;align=left;verticalAlign=middle;resizable=0;points=[];autosize=1;strokeColor=none;fillColor=none;fontSize=12;fontColor=#1d2d3e;fontFamily=Helvetica;" parent="1" vertex="1">
          <mxGeometry x="395" y="80" width="180" height="50" as="geometry" />
        </mxCell>
        <mxCell id="F_J2_1nYCTe2_NX2WGGC-46" value="&lt;font face=&quot;arial&quot; style=&quot;font-size: 16px;&quot;&gt;&lt;b style=&quot;font-size: 16px;&quot;&gt;Subaccount&lt;/b&gt;&lt;/font&gt;&lt;div&gt;&lt;font face=&quot;arial&quot;&gt;&lt;span style=&quot;font-size: 16px;&quot;&gt;&lt;b&gt;ABAP&lt;/b&gt;&lt;/span&gt;&lt;/font&gt;&lt;/div&gt;" style="text;html=1;align=left;verticalAlign=middle;resizable=0;points=[];autosize=1;strokeColor=none;fillColor=none;fontSize=12;fontColor=#1d2d3e;fontFamily=Helvetica;" parent="1" vertex="1">
          <mxGeometry x="395" y="310" width="120" height="50" as="geometry" />
        </mxCell>
        <mxCell id="F_J2_1nYCTe2_NX2WGGC-47" value="" style="rounded=1;whiteSpace=wrap;html=1;strokeColor=#0070F2;fillColor=#EBF8FF;arcSize=24;absoluteArcSize=1;imageWidth=64;imageHeight=64;strokeWidth=1.5;" parent="1" vertex="1">
          <mxGeometry x="125" y="174" width="240" height="326" as="geometry" />
        </mxCell>
        <mxCell id="F_J2_1nYCTe2_NX2WGGC-53" value="" style="group" parent="1" vertex="1" connectable="0">
          <mxGeometry x="195" y="190" width="110" height="94" as="geometry" />
        </mxCell>
        <mxCell id="F_J2_1nYCTe2_NX2WGGC-51" value="" style="shape=image;verticalLabelPosition=bottom;labelBackgroundColor=default;verticalAlign=top;aspect=fixed;imageAspect=0;image=data:image/svg+xml,PHN2ZyB4bWxucz0iaHR0cDovL3d3dy53My5vcmcvMjAwMC9zdmciIGZpbGw9Im5vbmUiIHZpZXdCb3g9IjAgMCA0OCA0OCIgaGVpZ2h0PSI0OCIgd2lkdGg9IjQ4Ij4mI3hhOzxjaXJjbGUgc3Ryb2tlLXdpZHRoPSIwLjg1NzE0MyIgc3Ryb2tlPSIjRDVEQUREIiBmaWxsPSJ1cmwoI3BhaW50MF9saW5lYXJfMzIzMl80NjAyKSIgcj0iMjMuNTcxNCIgY3k9IjI0IiBjeD0iMjQiLz4mI3hhOzxnIGNsaXAtcGF0aD0idXJsKCNjbGlwMF8zMjMyXzQ2MDIpIj4mI3hhOzxwYXRoIGZpbGw9InVybCgjcGFpbnQxX2xpbmVhcl8zMjMyXzQ2MDIpIiBkPSJNMTUuNzUwNSAxNi42Njc3QzE2LjcyNDkgMTMuMzM2MiAxOS43OTc0IDEwLjQ5NjEgMjMuODY3NyAxMC40OTYxQzI3LjE2MzUgMTAuNDk2MSAyOS43MzQxIDEyLjE0NDYgMzEuMjU2MSAxNC42Mjg4QzM0LjYzOTYgMTUuMzAwMSAzNy4zNjc3IDE4LjMyMTcgMzcuMzY3NyAyMi4yMzE3QzM3LjM2NzcgMjUuNTg1NSAzNS40OTQ5IDI3Ljk4MzcgMzMuMDI0OCAyOS4xNDkyQzMzLjExMzYgMjguODUwNyAzMy4xNjEzIDI4LjUzNDQgMzMuMTYxMyAyOC4yMDdWMjYuOTgzOEMzMy4xNjEzIDI2LjE1ODkgMzIuODU4NiAyNS40MDQ4IDMyLjM1ODMgMjQuODI2M0MzMy4wMDkxIDI0LjIyMzcgMzMuNDE2NSAyMy4zNjE4IDMzLjQxNjUgMjIuNDA0OVYyMS40ODk2QzMzLjQxNjUgMTkuNjY3MyAzMS45MzkzIDE4LjE5MDEgMzAuMTE3IDE4LjE5MDFIMjkuMjA2NkMyOC4xOTkzIDE4LjE5MDEgMjcuMjk3MyAxOC42NDE1IDI2LjY5MjEgMTkuMzUzMVYxOC41ODkzQzI2LjY5MjEgMTYuNzY3IDI1LjIxNDkgMTUuMjg5OCAyMy4zOTI2IDE1LjI4OThIMjIuNDgyMkMyMC42NiAxNS4yODk4IDE5LjE4MjcgMTYuNzY3IDE5LjE4MjcgMTguNTg5M1YxOS41MDQ2QzE5LjE4MjcgMTkuNzQ5NyAxOS4yMDk1IDE5Ljk4ODUgMTkuMjYwMiAyMC4yMTg0QzE5LjIyODMgMjAuMjE3NSAxOS4xOTYyIDIwLjIxNyAxOS4xNjQxIDIwLjIxN0gxOC4yNTM3QzE2LjQzMTUgMjAuMjE3IDE0Ljk1NDIgMjEuNjk0MiAxNC45NTQyIDIzLjUxNjVWMjQuNDMxOEMxNC45NTQyIDI1LjkxNzkgMTUuOTM2OCAyNy4xNzQ2IDE3LjI4NzcgMjcuNTg3NkMxNi43OTIxIDI4LjE2NDkgMTYuNDkyNiAyOC45MTU0IDE2LjQ5MjYgMjkuNzM1OVYyOS44NjI4QzE0Ljk4OTcgMjkuNjY2NCAxMy42MTU5IDI5LjA4MjQgMTIuNTQ1MyAyOC4wMzU1QzExLjE5NTMgMjYuNzE1NiAxMC42MzIxIDI0Ljk1NjkgMTAuNjMyMSAyMy4yMDk3QzEwLjYzMjEgMjEuMjg3NyAxMS4zNzY1IDE5LjQxMjYgMTIuODYxMiAxOC4xMTA2QzEzLjY4ODIgMTcuMzg1MiAxNC42NzM2IDE2LjkgMTUuNzUwNSAxNi42Njc3WiIgY2xpcC1ydWxlPSJldmVub2RkIiBmaWxsLXJ1bGU9ImV2ZW5vZGQiLz4mI3hhOzxwYXRoIGZpbGw9InVybCgjcGFpbnQyX2xpbmVhcl8zMjMyXzQ2MDIpIiBkPSJNMjMuMzkyNiAxNi42NDAxQzI0LjQ2OTMgMTYuNjQwMSAyNS4zNDIxIDE3LjUxMyAyNS4zNDIxIDE4LjU4OTZWMTkuNTA0OUMyNS4zNDIxIDIwLjEwNTYgMjUuMDcwNCAyMC42NDI4IDI0LjY0MzMgMjEuMDAwNEwyNS4wMTM0IDIyLjIxMzhDMjUuNDk5MiAyMi4yNDMyIDI1LjkzNjkgMjIuNDUwNCAyNi4yNjI0IDIyLjc3MTJMMjcuMjU3MSAyMi4xOTYxVjIxLjQ4OTlDMjcuMjU3MSAyMC40MTMyIDI4LjEyOTkgMTkuNTQwNCAyOS4yMDY2IDE5LjU0MDRIMzAuMTE3QzMxLjE5MzcgMTkuNTQwNCAzMi4wNjY1IDIwLjQxMzIgMzIuMDY2NSAyMS40ODk5VjIyLjQwNTJDMzIuMDY2NSAyMy40ODE5IDMxLjE5MzcgMjQuMzU0NyAzMC4xMTcgMjQuMzU0N0gyOS4yMDY2QzI4LjY3ODQgMjQuMzU0NyAyOC4xOTkzIDI0LjE0NDcgMjcuODQ4MiAyMy44MDM2TDI2Ljg2MTMgMjQuMzc0MkwyNi44NDM0IDI0LjM0MzNWMjUuMDcwMUMyNi44NDM0IDI1LjA3NDUgMjYuODQzNCAyNS4wNzkgMjYuODQzNCAyNS4wODM0TDI3LjQyMzcgMjUuNDYzN0MyNy43NTc3IDI1LjE5NTMgMjguMTgyMSAyNS4wMzQ3IDI4LjY0MzkgMjUuMDM0N0gyOS44NjE3QzMwLjkzODQgMjUuMDM0NyAzMS44MTEyIDI1LjkwNzUgMzEuODExMiAyNi45ODQyVjI4LjIwNzRDMzEuODExMiAyOS4yODQxIDMwLjkzODQgMzAuMTU2OSAyOS44NjE3IDMwLjE1NjlIMjguNjQzOUMyNy41NjcyIDMwLjE1NjkgMjYuNjk0NCAyOS4yODQxIDI2LjY5NDQgMjguMjA3NFYyNy4wMDMzTDI2LjA5MTYgMjYuNjA4NEMyNS43NjExIDI2Ljg2NiAyNS4zNDU1IDI3LjAxOTYgMjQuODkzOSAyNy4wMTk2SDIzLjk4MzVDMjMuOTI5OCAyNy4wMTk2IDIzLjg3NjYgMjcuMDE3NCAyMy44MjM5IDI3LjAxMzFMMjIuNDQ2MSAyOC44NjMzQzIyLjU3NzggMjkuMTI1OSAyMi42NTE5IDI5LjQyMjQgMjIuNjUxOSAyOS43MzYyVjMwLjY1MTVDMjIuNjUxOSAzMS43MjgyIDIxLjc3OTEgMzIuNjAxIDIwLjcwMjQgMzIuNjAxSDE5Ljc5MjFDMTguNzE1NCAzMi42MDEgMTcuODQyNiAzMS43MjgyIDE3Ljg0MjYgMzAuNjUxNUwxNy44NDI2IDI5LjczNjJDMTcuODQyNiAyOC42NTk2IDE4LjcxNTQgMjcuNzg2NyAxOS43OTIxIDI3Ljc4NjdIMjAuNzAyNEMyMC44NDI4IDI3Ljc4NjcgMjAuOTc5OCAyNy44MDE2IDIxLjExMTcgMjcuODI5OEwyMi4zNjE0IDI2LjE1MThDMjIuMTU0NiAyNS44NDIyIDIyLjAzNCAyNS40NzAyIDIyLjAzNCAyNS4wNzAxVjI1LjA0NDVMMjEuMDE1NSAyNS4wNDQ1QzIwLjc1ODcgMjUuODIxMiAyMC4wMjY4IDI2LjM4MTcgMTkuMTY0MSAyNi4zODE3SDE4LjI1MzdDMTcuMTc3IDI2LjM4MTcgMTYuMzA0MiAyNS41MDg5IDE2LjMwNDIgMjQuNDMyMlYyMy41MTY5QzE2LjMwNDIgMjIuNDQwMiAxNy4xNzcgMjEuNTY3NCAxOC4yNTM3IDIxLjU2NzRIMTkuMTY0MUMyMC4xODY5IDIxLjU2NzQgMjEuMDI1OCAyMi4zNTUxIDIxLjEwNzEgMjMuMzU3TDIyLjIwNjQgMjMuMzU3QzIyLjQxNzQgMjIuODkwNiAyMi44MDY2IDIyLjUyMjEgMjMuMjg3MSAyMi4zMzgzTDIzLjAxNzUgMjEuNDU0NEgyMi40ODIyQzIxLjQwNTUgMjEuNDU0NCAyMC41MzI3IDIwLjU4MTYgMjAuNTMyNyAxOS41MDQ5VjE4LjU4OTZDMjAuNTMyNyAxNy41MTMgMjEuNDA1NSAxNi42NDAxIDIyLjQ4MjIgMTYuNjQwMUgyMy4zOTI2Wk0yMy42NTQ2IDE4LjU4OTZDMjMuNjU0NiAxOC40NDQ5IDIzLjUzNzMgMTguMzI3NiAyMy4zOTI2IDE4LjMyNzZMMjIuNDgyMiAxOC4zMjc2QzIyLjMzNzUgMTguMzI3NiAyMi4yMjAyIDE4LjQ0NDkgMjIuMjIwMiAxOC41ODk2VjE5LjUwNDlDMjIuMjIwMiAxOS42NDk2IDIyLjMzNzUgMTkuNzY2OSAyMi40ODIyIDE5Ljc2NjlIMjMuMzkyNkMyMy41MzczIDE5Ljc2NjkgMjMuNjU0NiAxOS42NDk2IDIzLjY1NDYgMTkuNTA0OVYxOC41ODk2Wk0zMC4zNzkgMjEuNDg5OUMzMC4zNzkgMjEuMzQ1MiAzMC4yNjE3IDIxLjIyNzkgMzAuMTE3IDIxLjIyNzlIMjkuMjA2NkMyOS4wNjE5IDIxLjIyNzkgMjguOTQ0NiAyMS4zNDUyIDI4Ljk0NDYgMjEuNDg5OVYyMi40MDUyQzI4Ljk0NDYgMjIuNTQ5OSAyOS4wNjE5IDIyLjY2NzIgMjkuMjA2NiAyMi42NjcySDMwLjExN0MzMC4yNjE3IDIyLjY2NzIgMzAuMzc5IDIyLjU0OTkgMzAuMzc5IDIyLjQwNTJWMjEuNDg5OVpNMzAuMTIzNyAyNi45ODQyQzMwLjEyMzcgMjYuODM5NSAzMC4wMDY0IDI2LjcyMjIgMjkuODYxNyAyNi43MjIySDI4LjY0MzlDMjguNDk5MiAyNi43MjIyIDI4LjM4MTkgMjYuODM5NSAyOC4zODE5IDI2Ljk4NDJWMjguMjA3NEMyOC4zODE5IDI4LjM1MjEgMjguNDk5MiAyOC40Njk0IDI4LjY0MzkgMjguNDY5NEgyOS44NjE3QzMwLjAwNjQgMjguNDY5NCAzMC4xMjM3IDI4LjM1MjEgMzAuMTIzNyAyOC4yMDc0VjI2Ljk4NDJaTTI0Ljg5MzkgMjMuODk3N0MyNS4wMzg2IDIzLjg5NzcgMjUuMTU1OSAyNC4wMTUgMjUuMTU1OSAyNC4xNTk3VjI1LjA3MDFDMjUuMTU1OSAyNS4yMTQ4IDI1LjAzODYgMjUuMzMyMSAyNC44OTM5IDI1LjMzMjFIMjMuOTgzNUMyMy44Mzg4IDI1LjMzMjEgMjMuNzIxNSAyNS4yMTQ4IDIzLjcyMTUgMjUuMDcwMVYyNC4xNTk3QzIzLjcyMTUgMjQuMDE1IDIzLjgzODggMjMuODk3NyAyMy45ODM1IDIzLjg5NzdIMjQuODkzOVpNMTkuMTY0MSAyMy4yNTQ5QzE5LjMwODggMjMuMjU0OSAxOS40MjYxIDIzLjM3MjIgMTkuNDI2MSAyMy41MTY5VjI0LjQzMjJDMTkuNDI2MSAyNC41NzY5IDE5LjMwODggMjQuNjk0MiAxOS4xNjQxIDI0LjY5NDJIMTguMjUzN0MxOC4xMDkgMjQuNjk0MiAxNy45OTE3IDI0LjU3NjkgMTcuOTkxNyAyNC40MzIyTDE3Ljk5MTcgMjMuNTE2OUMxNy45OTE3IDIzLjM3MjIgMTguMTA5IDIzLjI1NDkgMTguMjUzNyAyMy4yNTQ5SDE5LjE2NDFaTTIwLjk2NDQgMjkuNzM2MkMyMC45NjQ0IDI5LjU5MTUgMjAuODQ3MSAyOS40NzQyIDIwLjcwMjQgMjkuNDc0MkgxOS43OTIxQzE5LjY0NzQgMjkuNDc0MiAxOS41MzAxIDI5LjU5MTUgMTkuNTMwMSAyOS43MzYyVjMwLjY1MTVDMTkuNTMwMSAzMC43OTYyIDE5LjY0NzQgMzAuOTEzNSAxOS43OTIxIDMwLjkxMzVIMjAuNzAyNEMyMC44NDcxIDMwLjkxMzUgMjAuOTY0NCAzMC43OTYyIDIwLjk2NDQgMzAuNjUxNVYyOS43MzYyWiIgY2xpcC1ydWxlPSJldmVub2RkIiBmaWxsLXJ1bGU9ImV2ZW5vZGQiLz4mI3hhOzxwYXRoIGZpbGw9InVybCgjcGFpbnQzX2xpbmVhcl8zMjMyXzQ2MDIpIiBkPSJNMTMuMzEwNiAzMC44NjA4QzEzLjk2MyAzMC44NjA4IDE0LjQ5MTkgMzEuMzg5NyAxNC40OTE5IDMyLjA0MjFWMzMuMzcyOUMxNC40OTE5IDM0LjIxMTcgMTUuMTcxOSAzNC44OTE2IDE2LjAxMDYgMzQuODkxNkgzMS45ODk5QzMyLjgyODcgMzQuODkxNiAzMy41MDg2IDM0LjIxMTcgMzMuNTA4NiAzMy4zNzI5VjMyLjA0MjFDMzMuNTA4NiAzMS4zODk3IDM0LjAzNzUgMzAuODYwOCAzNC42ODk5IDMwLjg2MDhDMzUuMzQyMyAzMC44NjA4IDM1Ljg3MTIgMzEuMzg5NyAzNS44NzEyIDMyLjA0MjFWMzMuMzcyOUMzNS44NzEyIDM1LjUxNjQgMzQuMTMzNSAzNy4yNTQxIDMxLjk4OTkgMzcuMjU0MUgxNi4wMTA2QzEzLjg2NzEgMzcuMjU0MSAxMi4xMjk0IDM1LjUxNjQgMTIuMTI5NCAzMy4zNzI5VjMyLjA0MjFDMTIuMTI5NCAzMS4zODk3IDEyLjY1ODMgMzAuODYwOCAxMy4zMTA2IDMwLjg2MDhaTTMwLjgxNSAzMy4zMzIxQzMxLjM3NDIgMzMuMzMyMSAzMS44Mjc1IDMyLjg3ODggMzEuODI3NSAzMi4zMTk2QzMxLjgyNzUgMzEuNzYwNCAzMS4zNzQyIDMxLjMwNzEgMzAuODE1IDMxLjMwNzFDMzAuMjU1OCAzMS4zMDcxIDI5LjgwMjUgMzEuNzYwNCAyOS44MDI1IDMyLjMxOTZDMjkuODAyNSAzMi44Nzg4IDMwLjI1NTggMzMuMzMyMSAzMC44MTUgMzMuMzMyMVpNMjguNzI2MSAzMi4zMTk2QzI4LjcyNjEgMzIuODc4OCAyOC4yNzI3IDMzLjMzMjEgMjcuNzEzNiAzMy4zMzIxQzI3LjE1NDQgMzMuMzMyMSAyNi43MDExIDMyLjg3ODggMjYuNzAxMSAzMi4zMTk2QzI2LjcwMTEgMzEuNzYwNCAyNy4xNTQ0IDMxLjMwNzEgMjcuNzEzNiAzMS4zMDcxQzI4LjI3MjcgMzEuMzA3MSAyOC43MjYxIDMxLjc2MDQgMjguNzI2MSAzMi4zMTk2WiIgY2xpcC1ydWxlPSJldmVub2RkIiBmaWxsLXJ1bGU9ImV2ZW5vZGQiLz4mI3hhOzwvZz4mI3hhOzxkZWZzPiYjeGE7PGxpbmVhckdyYWRpZW50IGdyYWRpZW50VW5pdHM9InVzZXJTcGFjZU9uVXNlIiB5Mj0iNDQuMjQ0MyIgeDI9IjQxLjA2NDUiIHkxPSI2LjgxMjg0IiB4MT0iNC4zNTI4NyIgaWQ9InBhaW50MF9saW5lYXJfMzIzMl80NjAyIj4mI3hhOzxzdG9wIHN0b3AtY29sb3I9IndoaXRlIi8+JiN4YTs8c3RvcCBzdG9wLWNvbG9yPSIjRUFFQ0VFIiBvZmZzZXQ9IjEiLz4mI3hhOzwvbGluZWFyR3JhZGllbnQ+JiN4YTs8bGluZWFyR3JhZGllbnQgZ3JhZGllbnRVbml0cz0idXNlclNwYWNlT25Vc2UiIHkyPSIzMS4xODQiIHgyPSIyNy41MjMzIiB5MT0iMTMuMzkyMyIgeDE9IjE0LjYzOTkiIGlkPSJwYWludDFfbGluZWFyXzMyMzJfNDYwMiI+JiN4YTs8c3RvcCBzdG9wLWNvbG9yPSIjMDE5NUZGIi8+JiN4YTs8c3RvcCBzdG9wLWNvbG9yPSIjMTE0N0U5IiBvZmZzZXQ9IjAuOTkxMDI4Ii8+JiN4YTs8L2xpbmVhckdyYWRpZW50PiYjeGE7PGxpbmVhckdyYWRpZW50IGdyYWRpZW50VW5pdHM9InVzZXJTcGFjZU9uVXNlIiB5Mj0iMzAuMDY2NyIgeDI9IjI5LjgwNDQiIHkxPSIxOC45ODgzIiB4MT0iMTguNjM0NSIgaWQ9InBhaW50Ml9saW5lYXJfMzIzMl80NjAyIj4mI3hhOzxzdG9wIHN0b3AtY29sb3I9IiMxMzQ4RkYiLz4mI3hhOzxzdG9wIHN0b3AtY29sb3I9IiMwNjIzOEQiIG9mZnNldD0iMSIvPiYjeGE7PC9saW5lYXJHcmFkaWVudD4mI3hhOzxsaW5lYXJHcmFkaWVudCBncmFkaWVudFVuaXRzPSJ1c2VyU3BhY2VPblVzZSIgeTI9IjQwLjE0OTkiIHgyPSIxNy44Nzc5IiB5MT0iMzEuODAxNCIgeDE9IjE1LjYzOTUiIGlkPSJwYWludDNfbGluZWFyXzMyMzJfNDYwMiI+JiN4YTs8c3RvcCBzdG9wLWNvbG9yPSIjMTM0OEZGIi8+JiN4YTs8c3RvcCBzdG9wLWNvbG9yPSIjMDYyMzhEIiBvZmZzZXQ9IjEiLz4mI3hhOzwvbGluZWFyR3JhZGllbnQ+JiN4YTs8Y2xpcFBhdGggaWQ9ImNsaXAwXzMyMzJfNDYwMiI+JiN4YTs8cmVjdCB0cmFuc2Zvcm09InRyYW5zbGF0ZSgxMC41IDEwLjUpIiBmaWxsPSJ3aGl0ZSIgaGVpZ2h0PSIyNyIgd2lkdGg9IjI3Ii8+JiN4YTs8L2NsaXBQYXRoPiYjeGE7PC9kZWZzPiYjeGE7PC9zdmc+;points=[[0,0,0,0,0],[0,0.25,0,0,0],[0,0.5,0,0,0],[0,0.75,0,0,0],[0.25,0,0,0,0],[0.5,0,0,0,0],[0.75,0,0,0,0],[1,0,0,0,0],[1,0.25,0,0,0],[1,0.5,0,0,0],[1,0.75,0,0,0]];pointerEvents=0;align=center;arcSize=24;fontFamily=Helvetica;fontSize=12;fontColor=default;fillColor=none;gradientColor=none;" parent="F_J2_1nYCTe2_NX2WGGC-53" vertex="1">
          <mxGeometry x="31" width="48" height="48" as="geometry" />
        </mxCell>
        <mxCell id="F_J2_1nYCTe2_NX2WGGC-52" value="&lt;font color=&quot;#1d2d3e&quot; size=&quot;1&quot; face=&quot;arial&quot; style=&quot;&quot;&gt;&lt;b style=&quot;font-size: 14px;&quot;&gt;Integration Suite&lt;br&gt;&lt;/b&gt;&lt;/font&gt;" style="text;html=1;align=center;verticalAlign=top;resizable=1;points=[[0,0.5,0,0,0],[0.21,1,0,0,0],[0.5,1,0,0,0],[0.85,1,0,0,0],[1,0.5,0,0,0]];autosize=0;strokeColor=none;fillColor=none;fontSize=12;fontColor=default;fontFamily=Helvetica;fixedWidth=1;imageWidth=24;whiteSpace=wrap;labelBackgroundColor=none;" parent="F_J2_1nYCTe2_NX2WGGC-53" vertex="1">
          <mxGeometry y="48" width="110" height="46" as="geometry" />
        </mxCell>
        <mxCell id="F_J2_1nYCTe2_NX2WGGC-54" value="" style="rounded=1;whiteSpace=wrap;html=1;strokeColor=#0070F2;fillColor=#EBF8FF;arcSize=24;absoluteArcSize=1;imageWidth=64;imageHeight=64;strokeWidth=1.5;" parent="1" vertex="1">
          <mxGeometry x="395" y="370" width="520" height="120" as="geometry" />
        </mxCell>
        <mxCell id="F_J2_1nYCTe2_NX2WGGC-55" value="" style="rounded=1;whiteSpace=wrap;html=1;strokeColor=#0070F2;fillColor=#EBF8FF;arcSize=24;absoluteArcSize=1;imageWidth=64;imageHeight=64;strokeWidth=1.5;" parent="1" vertex="1">
          <mxGeometry x="395" y="135" width="520" height="130" as="geometry" />
        </mxCell>
        <mxCell id="F_J2_1nYCTe2_NX2WGGC-56" value="" style="rounded=1;whiteSpace=wrap;html=1;strokeColor=#0070F2;strokeWidth=1.5;arcSize=16;fillColor=#ffffff;perimeterSpacing=0;absoluteArcSize=1;" parent="1" vertex="1">
          <mxGeometry x="150" y="316" width="175" height="70" as="geometry" />
        </mxCell>
        <mxCell id="F_J2_1nYCTe2_NX2WGGC-57" value="" style="rounded=1;whiteSpace=wrap;html=1;strokeColor=#0070F2;strokeWidth=1.5;arcSize=16;fillColor=#ffffff;perimeterSpacing=0;absoluteArcSize=1;" parent="1" vertex="1">
          <mxGeometry x="150" y="416" width="175" height="50" as="geometry" />
        </mxCell>
        <mxCell id="F_J2_1nYCTe2_NX2WGGC-60" value="&lt;div style=&quot;&quot;&gt;&lt;span style=&quot;font-size: 10px;&quot;&gt;API Management&lt;/span&gt;&lt;/div&gt;" style="text;html=1;align=center;verticalAlign=middle;resizable=0;points=[];autosize=1;strokeColor=none;fillColor=none;fontSize=12;fontColor=default;fontFamily=Helvetica;" parent="1" vertex="1">
          <mxGeometry x="149.99999999999977" y="316" width="100" height="30" as="geometry" />
        </mxCell>
        <mxCell id="F_J2_1nYCTe2_NX2WGGC-71" style="edgeStyle=orthogonalEdgeStyle;rounded=0;orthogonalLoop=1;jettySize=auto;html=1;fontFamily=Helvetica;fontSize=12;fontColor=default;" parent="1" source="F_J2_1nYCTe2_NX2WGGC-61" target="F_J2_1nYCTe2_NX2WGGC-68" edge="1">
          <mxGeometry relative="1" as="geometry" />
        </mxCell>
        <mxCell id="F_J2_1nYCTe2_NX2WGGC-61" value="" style="shape=image;verticalLabelPosition=bottom;labelBackgroundColor=default;verticalAlign=top;aspect=fixed;imageAspect=0;image=data:image/svg+xml,PHN2ZyB4bWxucz0iaHR0cDovL3d3dy53My5vcmcvMjAwMC9zdmciIGZpbGw9Im5vbmUiIHZpZXdCb3g9IjAgMCAxNyAxNyIgaGVpZ2h0PSIxNyIgd2lkdGg9IjE3Ij4mI3hhOzxwYXRoIGZpbGw9InVybCgjcGFpbnQwX2xpbmVhcl83NzVfOCkiIGQ9Ik0xMy42NzU2IDguNjM3NDhDMTQuNjQ2OSA5LjE3MTcxIDE1LjQ2NDcgOS45NDY0NiAxNi4wNTA2IDEwLjg4NzVDMTYuNjU0NiAxMS44NDU1IDE2Ljk1NjYgMTIuOTI4NSAxNi45NTY2IDE0LjEzNzVWMTUuOTE4NUMxNi45NTY2IDE2LjUwMTUgMTYuNjU0NiAxNi43OTM1IDE2LjA1MDYgMTYuNzkzNUg1LjQyNTY0QzUuMTU0NjQgMTYuNzkzNSA0LjkzNTY0IDE2LjcxMDUgNC43Njg2NCAxNi41NDM1QzQuNjAyNjQgMTYuMzk3NSA0LjUxODY0IDE2LjE4OTUgNC41MTg2NCAxNS45MTg1VjE1LjAxMjVIMS44NjI2NEMxLjI3OTY0IDE1LjAxMjUgMC45ODc2NCAxNC43MjA1IDAuOTg3NjQgMTQuMTM3NVYxMi4zNTY1QzAuOTg3NjQgMTEuNDgwNSAxLjIyNzY0IDEwLjY4OTUgMS43MDY2NCA5Ljk4MDQ4QzIuMTY0MzUgOS4yOTEwOSAyLjgwMjA3IDguNzQwMTcgMy41NTA2NCA4LjM4NzQ4QzMuMjg2MjIgOC4wODYyMyAzLjA4NDMxIDcuNzM1NDMgMi45NTY2NCA3LjM1NTQ4QzIuODMzNCA2Ljk3MTgxIDIuNzY5OTkgNi41NzE0NSAyLjc2ODY0IDYuMTY4NDhDMi43Njg2NCA1LjY2ODQ4IDIuODYyNjQgNS4yMTA0OCAzLjA1MDY0IDQuNzkzNDhDMy4yMzc2NCA0LjM1NTQ4IDMuNDg3NjQgMy45ODA0OCAzLjgwMDY0IDMuNjY4NDhDNC4xMjQ3OCAzLjM0MTYxIDQuNTA2MDggMy4wNzY5IDQuOTI1NjQgMi44ODc0OEM1LjM1OTkyIDIuNzAwNzMgNS44Mjc5MSAyLjYwNTA5IDYuMzAwNjQgMi42MDY0OEM2LjQ0NjY0IDIuNjA2NDggNi41ODE2NCAyLjYxNjQ4IDYuNzA2NjQgMi42MzY0OEM2LjgzMTY0IDIuNjM2NDggNi45NjY2NCAyLjY1ODQ4IDcuMTEyNjQgMi42OTk0OEM3LjUwMjE5IDIuMTIxOSA4LjAyODQ3IDEuNjQ5NTYgOC42NDQ2NCAxLjMyNDQ4QzkuMjkxNTggMC45OTA5MiAxMC4wMDk4IDAuODE5MzQzIDEwLjczNzYgMC44MjQ0NzZDMTEuMzYyNiAwLjgyNDQ3NiAxMS45NDY2IDAuOTM5NDc2IDEyLjQ4NzYgMS4xNjg0OEMxMy4wMjk2IDEuMzk4NDggMTMuNDk3NiAxLjcyMDQ4IDEzLjg5MzYgMi4xMzc0OEMxNC4yODk2IDIuNTMzNDggMTQuNjAyNiAzLjAwMTQ4IDE0LjgzMTYgMy41NDM0OEMxNS4wNjE2IDQuMDYzNDggMTUuMTc1NiA0LjYzNzQ4IDE1LjE3NTYgNS4yNjI0OEMxNS4xNzc3IDUuOTE5NDggMTUuMDM5MiA2LjU2OTMzIDE0Ljc2OTYgNy4xNjg0OEMxNC41MjkgNy43MzkzMiAxNC4xNTM2IDguMjQzMzYgMTMuNjc1NiA4LjYzNzQ4Wk0xMC43MzY2IDIuNjA1NDhDOS45ODY2NCAyLjYwNTQ4IDkuMzUxNjQgMi44NjU0OCA4LjgzMDY0IDMuMzg3NDhDOC4zMzA2NCAzLjg4NzQ4IDguMDgwNjQgNC41MTI0OCA4LjA4MDY0IDUuMjYyNDhDOC4wODA2NCA2LjAxMjQ4IDguMzMwNjQgNi42NDc0OCA4LjgzMDY0IDcuMTY4NDhDOS4zNTA2NCA3LjY2ODQ4IDkuOTg2NjQgNy45MTg0OCAxMC43MzY2IDcuOTE4NDhDMTEuNDg2NiA3LjkxODQ4IDEyLjExMTYgNy42Njg0OCAxMi42MTE2IDcuMTY4NDhDMTMuMTMyNiA2LjY0ODQ4IDEzLjM5MjYgNi4wMTI0OCAxMy4zOTI2IDUuMjYyNDhDMTMuMzkyNiA0LjUxMjQ4IDEzLjEzMjYgMy44ODc0OCAxMi42MTI2IDMuMzg3NDhDMTIuMTEyNiAyLjg2NjQ4IDExLjQ4NjYgMi42MDU0OCAxMC43MzY2IDIuNjA1NDhaTTYuMjA2NjQgNC4zODg0OEM1LjcyNjY0IDQuMzg4NDggNS4zMTA2NCA0LjU2NTQ4IDQuOTU2NjQgNC45MTk0OEM0LjYyMzY0IDUuMjUyNDggNC40NTY2NCA1LjY2OTQ4IDQuNDU2NjQgNi4xNjk0OEM0LjQ1NjY0IDYuNjQ5NDggNC42MjM2NCA3LjA2NTQ4IDQuOTU2NjQgNy40MTk0OEM1LjMxMDY0IDcuNzUyNDggNS43MjY2NCA3LjkxOTQ4IDYuMjA2NjQgNy45MTk0OEg3LjIwNjY0QzYuOTI3MDggNy41NDg5OCA2LjcwNTg1IDcuMTM3ODkgNi41NTA2NCA2LjcwMDQ4QzYuMzg3MDYgNi4yMzg5NSA2LjMwMjU0IDUuNzUzMTMgNi4zMDA2NCA1LjI2MzQ4VjQuODIzNDhDNi4zMTczMiA0LjY3NTEzIDYuMzQ4NDcgNC41Mjg3NiA2LjM5MzY0IDQuMzg2NDhINi4yMDY2NFY0LjM4ODQ4Wk0yLjc2ODY0IDEzLjI2MzVINC42MTI2NEM0LjgwMDY0IDExLjgyNTUgNS4zOTM2NCAxMC42Mzg1IDYuMzkzNjQgOS43MDA0N0g1LjQyNjY0QzQuNjc2NjQgOS43MDA0NyA0LjA0MDY0IDkuOTYwNDcgMy41MTk2NCAxMC40ODE1QzMuMDE5NjQgMTAuOTgxNSAyLjc2OTY0IDExLjYwNzUgMi43Njk2NCAxMi4zNTc1TDIuNzY4NjQgMTMuMjYzNVpNMTUuMTc1NiAxNC4xMzg1QzE1LjE4MjYgMTMuNTQ3NyAxNS4wNjU0IDEyLjk2MjEgMTQuODMxNiAxMi40MTk1QzE0LjYxMzMgMTEuODk0MyAxNC4yOTQ3IDExLjQxNjcgMTMuODkzNiAxMS4wMTM1QzEzLjQ5NzQgMTAuNTk2MyAxMy4wMTg1IDEwLjI2NjMgMTIuNDg3NiAxMC4wNDQ1QzExLjkzMzUgOS44MTI3MyAxMS4zMzgyIDkuNjk1NzEgMTAuNzM3NiA5LjcwMDQ3QzEwLjExMjYgOS43MDA0NyA5LjUyOTY0IDkuODE1NDggOC45ODc2NCAxMC4wNDQ1QzguNDY3NjQgMTAuMjc0NSA3Ljk5NzY0IDEwLjU5NjUgNy41ODE2NCAxMS4wMTM1QzcuMTgwNTggMTEuNDE2NyA2Ljg2MTk3IDExLjg5NDMgNi42NDM2NCAxMi40MTk1QzYuNDEwMjggMTIuOTYyMiA2LjI5MzQzIDEzLjU0NzggNi4zMDA2NCAxNC4xMzg1VjE1LjAxMzVIMTUuMTc1NlYxNC4xMzg1WiIvPiYjeGE7PGRlZnM+JiN4YTs8bGluZWFyR3JhZGllbnQgZ3JhZGllbnRVbml0cz0idXNlclNwYWNlT25Vc2UiIHkyPSIxNi43OTM1IiB4Mj0iOC45NzIxNCIgeTE9IjAuODI0MzY0IiB4MT0iOC45NzIxNCIgaWQ9InBhaW50MF9saW5lYXJfNzc1XzgiPiYjeGE7PHN0b3Agc3RvcC1jb2xvcj0iIzVCNzM4QiIvPiYjeGE7PHN0b3Agc3RvcC1jb2xvcj0iIzIyMzU0OCIgb2Zmc2V0PSIxIi8+JiN4YTs8L2xpbmVhckdyYWRpZW50PiYjeGE7PC9kZWZzPiYjeGE7PC9zdmc+;pointerEvents=0;align=center;arcSize=24;fontFamily=Helvetica;fontSize=12;fontColor=default;fillColor=none;gradientColor=none;" parent="1" vertex="1">
          <mxGeometry x="14.999999999999773" y="250" width="50" height="50" as="geometry" />
        </mxCell>
        <mxCell id="F_J2_1nYCTe2_NX2WGGC-62" value="&lt;div&gt;&lt;span&gt;iFlow&lt;/span&gt;&lt;/div&gt;&lt;div&gt;&lt;span&gt;&lt;i&gt;&lt;font style=&quot;font-size: 13px;&quot;&gt;(Validierung, Mapping)&lt;/font&gt;&lt;/i&gt;&lt;/span&gt;&lt;/div&gt;" style="text;html=1;align=center;verticalAlign=middle;resizable=0;points=[];autosize=1;strokeColor=none;fillColor=none;fontSize=15;fontColor=default;fontFamily=Helvetica;" parent="1" vertex="1">
          <mxGeometry x="157.99999999999977" y="416" width="150" height="50" as="geometry" />
        </mxCell>
        <mxCell id="F_J2_1nYCTe2_NX2WGGC-72" style="edgeStyle=orthogonalEdgeStyle;rounded=0;orthogonalLoop=1;jettySize=auto;html=1;entryX=0.5;entryY=0;entryDx=0;entryDy=0;fontFamily=Helvetica;fontSize=12;fontColor=default;exitX=0.5;exitY=1;exitDx=0;exitDy=0;flowAnimation=1;" parent="1" source="F_J2_1nYCTe2_NX2WGGC-56" target="F_J2_1nYCTe2_NX2WGGC-57" edge="1">
          <mxGeometry relative="1" as="geometry" />
        </mxCell>
        <mxCell id="F_J2_1nYCTe2_NX2WGGC-64" value="" style="image;aspect=fixed;html=1;points=[];align=center;fontSize=12;image=img/lib/azure2/other/API_Proxy.svg;pointerEvents=0;verticalAlign=top;arcSize=24;fontFamily=Helvetica;fontColor=default;fillColor=none;gradientColor=none;" parent="1" vertex="1">
          <mxGeometry x="214" y="336" width="48" height="48" as="geometry" />
        </mxCell>
        <mxCell id="F_J2_1nYCTe2_NX2WGGC-70" style="edgeStyle=orthogonalEdgeStyle;rounded=0;orthogonalLoop=1;jettySize=auto;html=1;exitX=1;exitY=0.5;exitDx=0;exitDy=0;exitPerimeter=0;fontFamily=Helvetica;fontSize=12;fontColor=default;flowAnimation=1;" parent="1" source="F_J2_1nYCTe2_NX2WGGC-68" target="F_J2_1nYCTe2_NX2WGGC-64" edge="1">
          <mxGeometry relative="1" as="geometry" />
        </mxCell>
        <mxCell id="F_J2_1nYCTe2_NX2WGGC-68" value="" style="shape=image;verticalLabelPosition=bottom;verticalAlign=top;imageAspect=0;aspect=fixed;image=data:image/svg+xml,PHN2ZyB4bWxucz0iaHR0cDovL3d3dy53My5vcmcvMjAwMC9zdmciIGZpbGw9Im5vbmUiIHZpZXdCb3g9IjAgMCA0OSA0OSIgaGVpZ2h0PSI0OSIgd2lkdGg9IjQ5Ij4mI3hhOzxnIGNsaXAtcGF0aD0idXJsKCNjbGlwMF8yNjIyXzQxNDkpIj4mI3hhOzxjaXJjbGUgc3Ryb2tlLXdpZHRoPSIwLjg1NzE0MyIgc3Ryb2tlPSIjRDVEQUREIiBmaWxsPSJ1cmwoI3BhaW50MF9saW5lYXJfMjYyMl80MTQ5KSIgcj0iMjMuNTcxNCIgY3k9IjI0LjAzNDkiIGN4PSIyNC41Ii8+JiN4YTs8cGF0aCBmaWxsPSJ1cmwoI3BhaW50MV9yYWRpYWxfMjYyMl80MTQ5KSIgZD0iTTM2LjQ4NjYgMjguMjk3OUMzNi4xMDU1IDI4LjI5NzkgMzUuNzYyNSAyOC40NTAzIDM1LjQ1NzYgMjguNzU1MkwzMC43MTMxIDMzLjQ5OTdMMjguODI2OCAzMS42MTMzQzI4LjU2IDMxLjMwODQgMjguMjM2MSAzMS4xNTYgMjcuODU1IDMxLjE1NkMyNy40NzM5IDMxLjE1NiAyNy4xMzA5IDMxLjMwODQgMjYuODI2MSAzMS42MTMzQzI2LjUyMTIgMzEuOTE4MiAyNi4zNjg4IDMyLjI2MTEgMjYuMzY4OCAzMi42NDIyQzI2LjM2ODggMzMuMDIzMyAyNi41MjEyIDMzLjM2NjMgMjYuODI2MSAzMy42NzExTDI5LjY4NDIgMzYuNTI5M0MyOS45NTEgMzYuNzk2IDMwLjI5MzkgMzYuOTI5NCAzMC43MTMxIDM2LjkyOTRDMzEuMTMyMyAzNi45Mjk0IDMxLjQ3NTMgMzYuNzk2IDMxLjc0MjEgMzYuNTI5M0wzNy41MTU1IDMwLjc1NThDMzcuNzgyMyAzMC40NTEgMzcuOTE1NiAzMC4xMDggMzcuOTE1NiAyOS43MjY5QzM3LjkxNTYgMjkuMzQ1OCAzNy43ODIzIDI5LjAyMTkgMzcuNTE1NSAyOC43NTUyQzM3LjIxMDYgMjguNDUwMyAzNi44Njc3IDI4LjI5NzkgMzYuNDg2NiAyOC4yOTc5WiIvPiYjeGE7PHBhdGggZmlsbD0idXJsKCNwYWludDJfcmFkaWFsXzI2MjJfNDE0OSkiIGQ9Ik0zMS4xODIzIDEyLjQzOTJDMzEuMTgyMyAxMS4xMjU5IDMyLjI0NjkgMTAuMDYxMyAzMy41NjAyIDEwLjA2MTNDMzQuODczNSAxMC4wNjEzIDM1LjkzODIgMTEuMTI1OSAzNS45MzgyIDEyLjQzOTJWMjMuOTAzM0MzNS45MzgyIDI1LjIxNjYgMzQuODczNSAyNi4yODEyIDMzLjU2MDIgMjYuMjgxMkMzMi4yNDY5IDI2LjI4MTIgMzEuMTgyMyAyNS4yMTY2IDMxLjE4MjMgMjMuOTAzM0wzMS4xODIzIDEyLjQzOTJaIi8+JiN4YTs8cGF0aCBmaWxsPSJ1cmwoI3BhaW50M19yYWRpYWxfMjYyMl80MTQ5KSIgZD0iTTE4LjM3NzggMTcuNzcyNUMxOC4zNzc4IDE2LjQ1OTIgMTkuNDQyNSAxNS4zOTQ1IDIwLjc1NTggMTUuMzk0NUMyMi4wNjkxIDE1LjM5NDUgMjMuMTMzNyAxNi40NTkyIDIzLjEzMzcgMTcuNzcyNUwyMy4xMzM3IDMzLjY2NzNDMjMuMTMzNyAzNC45ODA2IDIyLjA2OTEgMzYuMDQ1MyAyMC43NTU4IDM2LjA0NTNDMTkuNDQyNSAzNi4wNDUzIDE4LjM3NzggMzQuOTgwNiAxOC4zNzc4IDMzLjY2NzNMMTguMzc3OCAxNy43NzI1WiIvPiYjeGE7PHBhdGggZmlsbD0idXJsKCNwYWludDRfcmFkaWFsXzI2MjJfNDE0OSkiIGQ9Ik0yNC43OCAyMi42MTMyQzI0Ljc4IDIxLjI5OTkgMjUuODQ0NyAyMC4yMzUyIDI3LjE1OCAyMC4yMzUyQzI4LjQ3MTMgMjAuMjM1MiAyOS41MzYgMjEuMjk5OSAyOS41MzYgMjIuNjEzMkwyOS41MzYgMjYuMjgxMkMyOS41MzYgMjcuNTk0NSAyOC40NzEzIDI4LjY1OTIgMjcuMTU4IDI4LjY1OTJDMjUuODQ0NyAyOC42NTkyIDI0Ljc4IDI3LjU5NDUgMjQuNzggMjYuMjgxMkwyNC43OCAyMi42MTMyWiIvPiYjeGE7PHBhdGggZmlsbD0idXJsKCNwYWludDVfcmFkaWFsXzI2MjJfNDE0OSkiIGQ9Ik0xMS45NzU2IDI3Ljg4NDVDMTEuOTc1NiAyNi41NzExIDEzLjA0MDIgMjUuNTA2NSAxNC4zNTM2IDI1LjUwNjVDMTUuNjY2OSAyNS41MDY1IDE2LjczMTUgMjYuNTcxMSAxNi43MzE1IDI3Ljg4NDVMMTYuNzMxNSAzMy42NjcyQzE2LjczMTUgMzQuOTgwNSAxNS42NjY5IDM2LjA0NTIgMTQuMzUzNiAzNi4wNDUyQzEzLjA0MDIgMzYuMDQ1MiAxMS45NzU2IDM0Ljk4MDUgMTEuOTc1NiAzMy42NjcyVjI3Ljg4NDVaIi8+JiN4YTs8L2c+JiN4YTs8ZGVmcz4mI3hhOzxsaW5lYXJHcmFkaWVudCBncmFkaWVudFVuaXRzPSJ1c2VyU3BhY2VPblVzZSIgeTI9IjQ0LjI3OTIiIHgyPSI0MS41NjQ1IiB5MT0iNi44NDc3NSIgeDE9IjQuODUyODciIGlkPSJwYWludDBfbGluZWFyXzI2MjJfNDE0OSI+JiN4YTs8c3RvcCBzdG9wLWNvbG9yPSJ3aGl0ZSIvPiYjeGE7PHN0b3Agc3RvcC1jb2xvcj0iI0VBRUNFRSIgb2Zmc2V0PSIxIi8+JiN4YTs8L2xpbmVhckdyYWRpZW50PiYjeGE7PHJhZGlhbEdyYWRpZW50IGdyYWRpZW50VHJhbnNmb3JtPSJ0cmFuc2xhdGUoMjguMTU2OCAyOS41OTYzKSByb3RhdGUoMzYuNzc5KSBzY2FsZSgxMC4wNDIxIDguNzc2NzkpIiBncmFkaWVudFVuaXRzPSJ1c2VyU3BhY2VPblVzZSIgcj0iMSIgY3k9IjAiIGN4PSIwIiBpZD0icGFpbnQxX3JhZGlhbF8yNjIyXzQxNDkiPiYjeGE7PHN0b3Agc3RvcC1jb2xvcj0iIzEzNDhGRiIvPiYjeGE7PHN0b3Agc3RvcC1jb2xvcj0iIzA2MjM4RCIgb2Zmc2V0PSIxIi8+JiN4YTs8L3JhZGlhbEdyYWRpZW50PiYjeGE7PHJhZGlhbEdyYWRpZW50IGdyYWRpZW50VHJhbnNmb3JtPSJ0cmFuc2xhdGUoMTUuNjkxNiAxMy44NzY1KSByb3RhdGUoNDcuNjM0NCkgc2NhbGUoMjQuNjIgNDYuMzIzOSkiIGdyYWRpZW50VW5pdHM9InVzZXJTcGFjZU9uVXNlIiByPSIxIiBjeT0iMCIgY3g9IjAiIGlkPSJwYWludDJfcmFkaWFsXzI2MjJfNDE0OSI+JiN4YTs8c3RvcCBzdG9wLWNvbG9yPSIjMDE5NUZGIi8+JiN4YTs8c3RvcCBzdG9wLWNvbG9yPSIjMTE0N0U5IiBvZmZzZXQ9IjEiLz4mI3hhOzwvcmFkaWFsR3JhZGllbnQ+JiN4YTs8cmFkaWFsR3JhZGllbnQgZ3JhZGllbnRUcmFuc2Zvcm09InRyYW5zbGF0ZSgxNS42OTE2IDEzLjg3NjUpIHJvdGF0ZSg0Ny42MzQ0KSBzY2FsZSgyNC42MiA0Ni4zMjM5KSIgZ3JhZGllbnRVbml0cz0idXNlclNwYWNlT25Vc2UiIHI9IjEiIGN5PSIwIiBjeD0iMCIgaWQ9InBhaW50M19yYWRpYWxfMjYyMl80MTQ5Ij4mI3hhOzxzdG9wIHN0b3AtY29sb3I9IiMwMTk1RkYiLz4mI3hhOzxzdG9wIHN0b3AtY29sb3I9IiMxMTQ3RTkiIG9mZnNldD0iMSIvPiYjeGE7PC9yYWRpYWxHcmFkaWVudD4mI3hhOzxyYWRpYWxHcmFkaWVudCBncmFkaWVudFRyYW5zZm9ybT0idHJhbnNsYXRlKDE1LjY5MTYgMTMuODc2NSkgcm90YXRlKDQ3LjYzNDQpIHNjYWxlKDI0LjYyIDQ2LjMyMzkpIiBncmFkaWVudFVuaXRzPSJ1c2VyU3BhY2VPblVzZSIgcj0iMSIgY3k9IjAiIGN4PSIwIiBpZD0icGFpbnQ0X3JhZGlhbF8yNjIyXzQxNDkiPiYjeGE7PHN0b3Agc3RvcC1jb2xvcj0iIzAxOTVGRiIvPiYjeGE7PHN0b3Agc3RvcC1jb2xvcj0iIzExNDdFOSIgb2Zmc2V0PSIxIi8+JiN4YTs8L3JhZGlhbEdyYWRpZW50PiYjeGE7PHJhZGlhbEdyYWRpZW50IGdyYWRpZW50VHJhbnNmb3JtPSJ0cmFuc2xhdGUoMTUuNjkxNiAxMy44NzY1KSByb3RhdGUoNDcuNjM0NCkgc2NhbGUoMjQuNjIgNDYuMzIzOSkiIGdyYWRpZW50VW5pdHM9InVzZXJTcGFjZU9uVXNlIiByPSIxIiBjeT0iMCIgY3g9IjAiIGlkPSJwYWludDVfcmFkaWFsXzI2MjJfNDE0OSI+JiN4YTs8c3RvcCBzdG9wLWNvbG9yPSIjMDE5NUZGIi8+JiN4YTs8c3RvcCBzdG9wLWNvbG9yPSIjMTE0N0U5IiBvZmZzZXQ9IjEiLz4mI3hhOzwvcmFkaWFsR3JhZGllbnQ+JiN4YTs8Y2xpcFBhdGggaWQ9ImNsaXAwXzI2MjJfNDE0OSI+JiN4YTs8cmVjdCB0cmFuc2Zvcm09InRyYW5zbGF0ZSgwLjUgMC4wMzQ5MTIxKSIgZmlsbD0id2hpdGUiIGhlaWdodD0iNDgiIHdpZHRoPSI0OCIvPiYjeGE7PC9jbGlwUGF0aD4mI3hhOzwvZGVmcz4mI3hhOzwvc3ZnPg==;points=[[0,0,0,0,0],[0,0.25,0,0,0],[0,0.5,0,0,0],[0,0.75,0,0,0],[0.25,0,0,0,0],[0.5,0,0,0,0],[0.75,0,0,0,0],[1,0,0,0,0],[1,0.25,0,0,0],[1,0.5,0,0,0],[1,0.75,0,0,0]];pointerEvents=0;align=center;arcSize=24;fontFamily=Helvetica;fontSize=12;fontColor=default;fillColor=none;gradientColor=none;" parent="1" vertex="1">
          <mxGeometry x="15" y="336" width="49" height="49" as="geometry" />
        </mxCell>
        <mxCell id="F_J2_1nYCTe2_NX2WGGC-73" value="&lt;span style=&quot;font-size: 10px;&quot;&gt;Lastgang&lt;/span&gt;&lt;div&gt;&lt;span style=&quot;font-size: 10px;&quot;&gt;(JSON)&lt;/span&gt;&lt;/div&gt;" style="text;html=1;align=center;verticalAlign=middle;resizable=0;points=[];autosize=1;strokeColor=none;fillColor=none;fontSize=12;fontColor=default;fontFamily=Helvetica;" parent="1" vertex="1">
          <mxGeometry x="9.999999999999773" y="381" width="60" height="40" as="geometry" />
        </mxCell>
        <mxCell id="F_J2_1nYCTe2_NX2WGGC-74" value="" style="group;pointerEvents=0;align=center;verticalAlign=top;arcSize=24;fontFamily=Helvetica;fontSize=12;fontColor=default;fillColor=none;gradientColor=none;" parent="1" vertex="1" connectable="0">
          <mxGeometry x="409" y="382.5" width="110" height="95" as="geometry" />
        </mxCell>
        <mxCell id="F_J2_1nYCTe2_NX2WGGC-75" value="" style="shape=image;verticalLabelPosition=bottom;verticalAlign=top;imageAspect=0;aspect=fixed;image=data:image/svg+xml,PHN2ZyB4bWxucz0iaHR0cDovL3d3dy53My5vcmcvMjAwMC9zdmciIGZpbGw9Im5vbmUiIHZpZXdCb3g9IjAgMCA0OSA0OSIgaGVpZ2h0PSI0OSIgd2lkdGg9IjQ5Ij4mI3hhOzxjaXJjbGUgc3Ryb2tlLXdpZHRoPSIwLjg1NzE0MyIgc3Ryb2tlPSIjRDVEQUREIiBmaWxsPSJ1cmwoI3BhaW50MF9saW5lYXJfMjYyMl8yOTAyKSIgcj0iMjMuNTcxNCIgY3k9IjI0LjAzNDkiIGN4PSIyNC41Ii8+JiN4YTs8cGF0aCBmaWxsPSJ1cmwoI3BhaW50MV9yYWRpYWxfMjYyMl8yOTAyKSIgZD0iTTIyLjQ5OTggMjkuMTA1MUgyMS40ODIxTDIwLjk5MTkgMjcuNjMwMkgxOC42Mzk0TDE4LjE0OTIgMjkuMTA1MUgxNy4xMTkyTDE5LjIyMDMgMjMuMzAwMkgyMC40Mjc1TDIyLjQ5OTggMjkuMTA1MVpNMTguOTExMyAyNi44MTg2SDIwLjcyNDFMMjAuMTA2MSAyNC45NjA1QzE5Ljk2MDUgMjQuNTMyMSAxOS44NjQ0IDI0LjIzNDEgMTkuODE3NyAyNC4wNjY1QzE5LjgwMTIgMjQuMTM1MiAxOS43MDUxIDI0LjQzNTkgMTkuNTI5MyAyNC45Njg4TDE4LjkxMTMgMjYuODE4NloiLz4mI3hhOzxwYXRoIGZpbGw9InVybCgjcGFpbnQyX3JhZGlhbF8yNjIyXzI5MDIpIiBkPSJNMjMuMjg2NiAyOS4xMDUxVjIzLjMwMDJIMjUuNTY0OUMyNi4yMjEzIDIzLjMwMDIgMjYuNzIyNiAyMy40MTk3IDI3LjA2ODYgMjMuNjU4N0MyNy40MTQ3IDIzLjg5NzYgMjcuNTg3NyAyNC4yNTg4IDI3LjU4NzcgMjQuNzQyMkMyNy41ODc3IDI1LjA4IDI3LjQ5ODUgMjUuMzY1NyAyNy4zMiAyNS41OTkxQzI3LjE0NDIgMjUuODMyNiAyNi44ODc0IDI1Ljk4OTEgMjYuNTQ5NSAyNi4wNjg4QzI2Ljk0NSAyNi4xMjEgMjcuMjQ4NSAyNi4yNjkzIDI3LjQ2IDI2LjUxMzdDMjcuNjc0MyAyNi43NTgyIDI3Ljc4MTQgMjcuMDc0IDI3Ljc4MTQgMjcuNDYxM0MyNy43ODE0IDI3LjgzNDggMjcuNjg2NiAyOC4xNDUyIDI3LjQ5NzEgMjguMzkyNEMyNy4zMTAzIDI4LjYzNjggMjcuMDU3NyAyOC44MTY3IDI2LjczOSAyOC45MzIxQzI2LjQyMDQgMjkuMDQ3NSAyNi4wNjIgMjkuMTA1MSAyNS42NjM4IDI5LjEwNTFIMjMuMjg2NlpNMjUuNDcwMSAyNS42ODE1QzI1Ljg0OTIgMjUuNjgxNSAyNi4xMjY2IDI1LjYxNDIgMjYuMzAyMyAyNS40Nzk2QzI2LjQ3ODEgMjUuMzQyMyAyNi41NjYgMjUuMTQxOCAyNi41NjYgMjQuODc4MUMyNi41NjYgMjQuNjIgMjYuNDc5NSAyNC40MzMyIDI2LjMwNjUgMjQuMzE3OEMyNi4xMzYyIDI0LjIwMjUgMjUuODc2NiAyNC4xNDQ4IDI1LjUyNzggMjQuMTQ0OEgyNC4zMDQyVjI1LjY4MTVIMjUuNDcwMVpNMjUuNTgxNCAyOC4yNjA2QzI1Ljk1MjIgMjguMjYwNiAyNi4yNDA1IDI4LjE5NDYgMjYuNDQ2NSAyOC4wNjI4QzI2LjY1NTMgMjcuOTI4MiAyNi43NTk2IDI3LjY5ODkgMjYuNzU5NiAyNy4zNzQ4QzI2Ljc1OTYgMjcuMDc4MiAyNi42NTM5IDI2Ljg2MjUgMjYuNDQyNCAyNi43MjhDMjYuMjMzNyAyNi41OTA2IDI1Ljk0OTQgMjYuNTIyIDI1LjU4OTYgMjYuNTIySDI0LjMwNDJWMjguMjYwNkgyNS41ODE0WiIvPiYjeGE7PHBhdGggZmlsbD0idXJsKCNwYWludDNfcmFkaWFsXzI2MjJfMjkwMikiIGQ9Ik0zMy41ODEgMjkuMTA1MUgzMi41NjM0TDMyLjA3MzEgMjcuNjMwMkgyOS43MjA3TDI5LjIzMDQgMjkuMTA1MUgyOC4yMDA0TDMwLjMwMTYgMjMuMzAwMkgzMS41MDg3TDMzLjU4MSAyOS4xMDUxWk0yOS45OTI2IDI2LjgxODZIMzEuODA1M0wzMS4xODczIDI0Ljk2MDVDMzEuMDQxOCAyNC41MzIxIDMwLjk0NTYgMjQuMjM0MSAzMC44OTkgMjQuMDY2NUMzMC44ODI1IDI0LjEzNTIgMzAuNzg2MyAyNC40MzU5IDMwLjYxMDYgMjQuOTY4OEwyOS45OTI2IDI2LjgxODZaIi8+JiN4YTs8cGF0aCBmaWxsPSJ1cmwoI3BhaW50NF9yYWRpYWxfMjYyMl8yOTAyKSIgZD0iTTM0LjM1OTMgMjkuMTA1MVYyMy4zMDAySDM2Ljc1NzFDMzcuMjEzIDIzLjMwMDIgMzcuNTk2MiAyMy4zNzU4IDM3LjkwNjUgMjMuNTI2OEMzOC4yMTY5IDIzLjY3NzkgMzguNDQ5IDIzLjg5MDcgMzguNjAyOCAyNC4xNjU0QzM4Ljc1NjYgMjQuNDQwMSAzOC44MzM1IDI0Ljc2MTQgMzguODMzNSAyNS4xMjk1QzM4LjgzMzUgMjUuNDgxIDM4Ljc1OCAyNS43OTk2IDM4LjYwNjkgMjYuMDg1M0MzOC40NTU4IDI2LjM3MDkgMzguMjI3OSAyNi41OTg5IDM3LjkyMyAyNi43NjkyQzM3LjYxODEgMjYuOTM2NyAzNy4yNDYgMjcuMDIwNSAzNi44MDY1IDI3LjAyMDVIMzUuMzgxVjI5LjEwNTFIMzQuMzU5M1pNMzYuNjcwNiAyNi4xNTEyQzM3LjA0OTYgMjYuMTUxMiAzNy4zMzI1IDI2LjA2MzMgMzcuNTE5MiAyNS44ODc1QzM3LjcwODggMjUuNzA5IDM3LjgwMzUgMjUuNDU5IDM3LjgwMzUgMjUuMTM3N0MzNy44MDM1IDI0LjgyNDYgMzcuNzA2IDI0LjU4ODQgMzcuNTExIDI0LjQyOTFDMzcuMzE2IDI0LjI2NyAzNy4wMjQ5IDI0LjE4NiAzNi42Mzc2IDI0LjE4NkgzNS4zODFWMjYuMTUxMkgzNi42NzA2WiIvPiYjeGE7PHBhdGggZmlsbD0idXJsKCNwYWludDVfcmFkaWFsXzI2MjJfMjkwMikiIGQ9Ik0xNi4wMDg0IDIyLjc1NjZDMTQuNjk1MSAyMi43OTAyIDEzLjY1NTkgMjMuODgzOSAxMy42ODk1IDI1LjE5NzFDMTMuNzIzNSAyNi41MjggMTQuOTAxNCAyNy41ODQ5IDE2LjIwNzMgMjcuNTEyNUwxNi43Mjk4IDI3LjQ4MzZMMTYuMTAxMiAyOS4xMDUxTDE1Ljg1NzEgMjkuMDkyMkMxMy44MTMyIDI4Ljk4NDQgMTIuMTYyMiAyNy4zMTgxIDEyLjEwOSAyNS4yMzc2QzEyLjA1NDIgMjMuMDkxOCAxMy43MTk0IDIxLjI5ODkgMTUuODQ4MiAyMS4xODFDMTYuMDIwNCAyMC41MDQ5IDE2LjM0NTggMTkuODczOCAxNi44MDY2IDE5LjMzODhDMTguMTUzNyAxNy43NzQ1IDIwLjMzNjkgMTcuMzU3MSAyMi4xNjA4IDE4LjE0NzNDMjMuMjk5NiAxNi44NDY1IDI0Ljc4MDkgMTYuMTQ1NiAyNi41NjQ1IDE2LjMwMzdDMjkuMTA4IDE2LjUyOTIgMzEuNDI2MiAxOC40MDY2IDMxLjY3MzMgMjEuMzcxOEMzMS43MTM1IDIxLjg1NDggMzEuMzM5NiAyMi4yMzcxIDMwLjg5MjkgMjIuMjc3NEMzMC4zNjY3IDIyLjMyNDkgMjkuOTU4NyAyMS45MTI2IDI5Ljg5NjUgMjEuNDQ1OUMyOS42NDM5IDE5LjU1MzkgMjguMDk5MSAxOC4yMTEyIDI2LjQwODcgMTguMDYxM0MyNS4xNDY5IDE3Ljk0OTUgMjQuMTYxNSAxOC40NjQ0IDIzLjM0MjcgMTkuNDg2TDIyLjk0MjEgMTkuOTQ1NUMyMi42OTM4IDIwLjIzMzggMjIuMjgzMiAyMC4yNDQ0IDIyLjAwNjEgMjAuMDUwMkMyMC43ODI0IDE5LjE5MjQgMTkuMTEwNyAxOS4zNzE4IDE4LjE0NTkgMjAuNDkyMkMxNy43NTgzIDIwLjk0MjIgMTcuNTI0NiAyMS41MDI5IDE3LjQ3NCAyMi4wOTU4QzE3LjQ0NSAyMi40MzYgMTcuMTY4OCAyMi43NDkyIDE2Ljc4MjEgMjIuNzQ5M0MxNi41MjM5IDIyLjc1ODIgMTYuMjY2NCAyMi43NSAxNi4wMDg0IDIyLjc1NjZaIi8+JiN4YTs8ZGVmcz4mI3hhOzxsaW5lYXJHcmFkaWVudCBncmFkaWVudFVuaXRzPSJ1c2VyU3BhY2VPblVzZSIgeTI9IjQ0LjI3OTIiIHgyPSI0MS41NjQ1IiB5MT0iNi44NDc3NSIgeDE9IjQuODUyODciIGlkPSJwYWludDBfbGluZWFyXzI2MjJfMjkwMiI+JiN4YTs8c3RvcCBzdG9wLWNvbG9yPSJ3aGl0ZSIvPiYjeGE7PHN0b3Agc3RvcC1jb2xvcj0iI0VBRUNFRSIgb2Zmc2V0PSIxIi8+JiN4YTs8L2xpbmVhckdyYWRpZW50PiYjeGE7PHJhZGlhbEdyYWRpZW50IGdyYWRpZW50VHJhbnNmb3JtPSJ0cmFuc2xhdGUoMjAuNDgxNiAyNC4xNzM1KSByb3RhdGUoMTQuOTY2OSkgc2NhbGUoMTUuNjU2OCA3LjExOTQ0KSIgZ3JhZGllbnRVbml0cz0idXNlclNwYWNlT25Vc2UiIHI9IjEiIGN5PSIwIiBjeD0iMCIgaWQ9InBhaW50MV9yYWRpYWxfMjYyMl8yOTAyIj4mI3hhOzxzdG9wIHN0b3AtY29sb3I9IiMxMzQ4RkYiLz4mI3hhOzxzdG9wIHN0b3AtY29sb3I9IiMwNjIzOEQiIG9mZnNldD0iMSIvPiYjeGE7PC9yYWRpYWxHcmFkaWVudD4mI3hhOzxyYWRpYWxHcmFkaWVudCBncmFkaWVudFRyYW5zZm9ybT0idHJhbnNsYXRlKDIwLjQ4MTYgMjQuMTczNSkgcm90YXRlKDE0Ljk2NjkpIHNjYWxlKDE1LjY1NjggNy4xMTk0NCkiIGdyYWRpZW50VW5pdHM9InVzZXJTcGFjZU9uVXNlIiByPSIxIiBjeT0iMCIgY3g9IjAiIGlkPSJwYWludDJfcmFkaWFsXzI2MjJfMjkwMiI+JiN4YTs8c3RvcCBzdG9wLWNvbG9yPSIjMTM0OEZGIi8+JiN4YTs8c3RvcCBzdG9wLWNvbG9yPSIjMDYyMzhEIiBvZmZzZXQ9IjEiLz4mI3hhOzwvcmFkaWFsR3JhZGllbnQ+JiN4YTs8cmFkaWFsR3JhZGllbnQgZ3JhZGllbnRUcmFuc2Zvcm09InRyYW5zbGF0ZSgyMC40ODE2IDI0LjE3MzUpIHJvdGF0ZSgxNC45NjY5KSBzY2FsZSgxNS42NTY4IDcuMTE5NDQpIiBncmFkaWVudFVuaXRzPSJ1c2VyU3BhY2VPblVzZSIgcj0iMSIgY3k9IjAiIGN4PSIwIiBpZD0icGFpbnQzX3JhZGlhbF8yNjIyXzI5MDIiPiYjeGE7PHN0b3Agc3RvcC1jb2xvcj0iIzEzNDhGRiIvPiYjeGE7PHN0b3Agc3RvcC1jb2xvcj0iIzA2MjM4RCIgb2Zmc2V0PSIxIi8+JiN4YTs8L3JhZGlhbEdyYWRpZW50PiYjeGE7PHJhZGlhbEdyYWRpZW50IGdyYWRpZW50VHJhbnNmb3JtPSJ0cmFuc2xhdGUoMjAuNDgxNiAyNC4xNzM1KSByb3RhdGUoMTQuOTY2OSkgc2NhbGUoMTUuNjU2OCA3LjExOTQ0KSIgZ3JhZGllbnRVbml0cz0idXNlclNwYWNlT25Vc2UiIHI9IjEiIGN5PSIwIiBjeD0iMCIgaWQ9InBhaW50NF9yYWRpYWxfMjYyMl8yOTAyIj4mI3hhOzxzdG9wIHN0b3AtY29sb3I9IiMxMzQ4RkYiLz4mI3hhOzxzdG9wIHN0b3AtY29sb3I9IiMwNjIzOEQiIG9mZnNldD0iMSIvPiYjeGE7PC9yYWRpYWxHcmFkaWVudD4mI3hhOzxyYWRpYWxHcmFkaWVudCBncmFkaWVudFRyYW5zZm9ybT0idHJhbnNsYXRlKDE1LjE0MjMgMTguMTY0Nikgcm90YXRlKDMzLjUyOTQpIHNjYWxlKDE2LjI1MjYgMjguMjgwOSkiIGdyYWRpZW50VW5pdHM9InVzZXJTcGFjZU9uVXNlIiByPSIxIiBjeT0iMCIgY3g9IjAiIGlkPSJwYWludDVfcmFkaWFsXzI2MjJfMjkwMiI+JiN4YTs8c3RvcCBzdG9wLWNvbG9yPSIjMDE5NUZGIi8+JiN4YTs8c3RvcCBzdG9wLWNvbG9yPSIjMTE0N0U5IiBvZmZzZXQ9IjEiLz4mI3hhOzwvcmFkaWFsR3JhZGllbnQ+JiN4YTs8L2RlZnM+JiN4YTs8L3N2Zz4=;points=[[0,0,0,0,0],[0,0.25,0,0,0],[0,0.5,0,0,0],[0,0.75,0,0,0],[0.25,0,0,0,0],[0.5,0,0,0,0],[0.75,0,0,0,0],[1,0,0,0,0],[1,0.25,0,0,0],[1,0.5,0,0,0],[1,0.75,0,0,0]];pointerEvents=0;align=center;arcSize=24;fontFamily=Helvetica;fontSize=12;fontColor=default;fillColor=none;gradientColor=none;" parent="F_J2_1nYCTe2_NX2WGGC-74" vertex="1">
          <mxGeometry x="30.5" width="49" height="49" as="geometry" />
        </mxCell>
        <mxCell id="F_J2_1nYCTe2_NX2WGGC-76" value="&lt;font color=&quot;#1d2d3e&quot; size=&quot;1&quot; face=&quot;arial&quot; style=&quot;&quot;&gt;&lt;b style=&quot;font-size: 14px;&quot;&gt;ABAP Environment&lt;br&gt;&lt;/b&gt;&lt;/font&gt;" style="text;html=1;align=center;verticalAlign=top;resizable=1;points=[[0,0.5,0,0,0],[0.21,1,0,0,0],[0.5,1,0,0,0],[0.85,1,0,0,0],[1,0.5,0,0,0]];autosize=0;strokeColor=none;fillColor=none;fontSize=12;fontColor=default;fontFamily=Helvetica;fixedWidth=1;imageWidth=24;whiteSpace=wrap;labelBackgroundColor=none;" parent="F_J2_1nYCTe2_NX2WGGC-74" vertex="1">
          <mxGeometry y="49" width="110" height="46" as="geometry" />
        </mxCell>
        <mxCell id="F_J2_1nYCTe2_NX2WGGC-77" value="" style="group;pointerEvents=0;align=center;verticalAlign=top;arcSize=24;fontFamily=Helvetica;fontSize=12;fontColor=default;fillColor=none;gradientColor=none;" parent="1" vertex="1" connectable="0">
          <mxGeometry x="409" y="150" width="110" height="95" as="geometry" />
        </mxCell>
        <mxCell id="F_J2_1nYCTe2_NX2WGGC-78" value="&lt;font color=&quot;#1d2d3e&quot; size=&quot;1&quot; face=&quot;arial&quot; style=&quot;&quot;&gt;&lt;b style=&quot;font-size: 14px;&quot;&gt;SAP Build Process Automation&lt;br&gt;&lt;/b&gt;&lt;/font&gt;" style="text;html=1;align=center;verticalAlign=top;resizable=1;points=[[0,0.5,0,0,0],[0.21,1,0,0,0],[0.5,1,0,0,0],[0.85,1,0,0,0],[1,0.5,0,0,0]];autosize=0;strokeColor=none;fillColor=none;fontSize=12;fontColor=default;fontFamily=Helvetica;fixedWidth=1;imageWidth=24;whiteSpace=wrap;labelBackgroundColor=none;" parent="F_J2_1nYCTe2_NX2WGGC-77" vertex="1">
          <mxGeometry y="49" width="110" height="46" as="geometry" />
        </mxCell>
        <mxCell id="F_J2_1nYCTe2_NX2WGGC-79" value="" style="shape=image;verticalLabelPosition=bottom;labelBackgroundColor=default;verticalAlign=top;aspect=fixed;imageAspect=0;image=data:image/svg+xml,PHN2ZyB4bWxucz0iaHR0cDovL3d3dy53My5vcmcvMjAwMC9zdmciIGZpbGw9Im5vbmUiIHZpZXdCb3g9IjAgMCAxNiAxNiIgaGVpZ2h0PSIxNiIgd2lkdGg9IjE2Ij4mI3hhOzxnIGNsaXAtcGF0aD0idXJsKCNjbGlwMF8zMTA2XzI3MDY1KSI+JiN4YTs8Y2lyY2xlIHN0cm9rZS13aWR0aD0iMC4yNzM4OTMiIHN0cm9rZT0iI0Q1REFERCIgZmlsbD0idXJsKCNwYWludDBfbGluZWFyXzMxMDZfMjcwNjUpIiByPSI3LjUzMjA1IiBjeT0iOC4wMDAwNSIgY3g9IjcuOTk5MzIiLz4mI3hhOzxnIGNsaXAtcGF0aD0idXJsKCNjbGlwMV8zMTA2XzI3MDY1KSI+JiN4YTs8bWFzayBoZWlnaHQ9IjEyIiB3aWR0aD0iMTMiIHk9IjIiIHg9IjIiIG1hc2tVbml0cz0idXNlclNwYWNlT25Vc2UiIHN0eWxlPSJtYXNrLXR5cGU6YWxwaGEiIGlkPSJtYXNrMF8zMTA2XzI3MDY1Ij4mI3hhOzxwYXRoIGZpbGw9ImJsYWNrIiBkPSJNOS41MzU2MyA5LjM1MTM1QzEwLjUxMDMgOS4wNDIyMSAxMS4yMTU0IDguMTQxNyAxMS4yMTU0IDcuMDc4OThDMTEuMjE1NCA1Ljc2MDc3IDEwLjEzMDQgNC42OTIxNCA4Ljc5MjAzIDQuNjkyMTRMNy44NzM4OCA0LjY5MjE0QzYuNTU1NjggNC42OTIxNCA1LjQ4NzA2IDUuNzYwNzYgNS40ODcwNiA3LjA3ODk3VjkuOTQzMTdDNS40ODcwNiAxMC43MzQxIDYuMTI4MjMgMTEuMzc1MyA2LjkxOTE1IDExLjM3NTNDNy43MTAwOCAxMS4zNzUzIDguMzUxMjUgMTAuNzM0MSA4LjM1MTI1IDkuOTQzMTdMOC4zNTEyNSA3LjIzNjYyQzguMzUxMjUgNy4wNTIxNiA4LjYxNTY4IDcuMDIxNzkgOC42NTc0OSA3LjIwMTQ1TDkuMDg2NTEgOS4wNDQ5MUM5LjE0ODA0IDkuMzAwNzEgOS4zMDMwOSA5LjQyNTExIDkuNTM1NjMgOS4zNTEzNVoiLz4mI3hhOzwvbWFzaz4mI3hhOzxnIG1hc2s9InVybCgjbWFzazBfMzEwNl8yNzA2NSkiPiYjeGE7PGcgZmlsdGVyPSJ1cmwoI2ZpbHRlcjBfZF8zMTA2XzI3MDY1KSI+JiN4YTs8cGF0aCBmaWxsPSJ1cmwoI3BhaW50MV9yYWRpYWxfMzEwNl8yNzA2NSkiIGQ9Ik0xMy44NTA3IDQuMjM3MUMxMi45NDE0IDUuMDg3MjMgMTEuNTk5NiA1LjQxMTcxIDExLjQzODYgOS4yNTgyNEMxMS4yNzc2IDEzLjEwNDggNi42NDA5MyAxMS45MTQyIDUuNjU3MTEgMTEuNDc3OUMzLjkxNzAxIDEwLjcwNjIgMS4zOTI5NCA1LjYxNTYxIDQuMzAxMTggNC4wMjE1MkM3LjIwOTQyIDIuNDI3NDIgOS4wMDAyOSAxLjA5OTM5IDEwLjc0MDQgMS44NzExQzEyLjQ4MDUgMi42NDI4IDE0Ljc2IDMuMzg2OTcgMTMuODUwNyA0LjIzNzFaIi8+JiN4YTs8L2c+JiN4YTs8ZyBmaWx0ZXI9InVybCgjZmlsdGVyMV9kXzMxMDZfMjcwNjUpIj4mI3hhOzxwYXRoIGZpbGw9InVybCgjcGFpbnQyX3JhZGlhbF8zMTA2XzI3MDY1KSIgZD0iTTEzLjIwNjcgNi41NDU1OEMxMi4xNDgzIDYuNzg5NCA5LjkzOTM1IDUuNzY1MTcgOC4xMzQ2NSA4LjU5ODIyQzYuMzI5OTYgMTEuNDMxMyAzLjE0NTgzIDkuMTQzOTYgMi41OTQxMiA4LjM4NDEyQzEuNjE4MzEgNy4wNDAxNyAxLjc1NjggMi43NTE5MSA0LjY0OTU5IDIuODIxMjFDNy41NDIzOSAyLjg5MDUxIDEwLjc3ODEgMy4zMTU2MiAxMS43NTM5IDQuNjU5NTZDMTIuNzI5NyA2LjAwMzUgMTQuMjY1IDYuMzAxNzUgMTMuMjA2NyA2LjU0NTU4WiIvPiYjeGE7PC9nPiYjeGE7PGcgZmlsdGVyPSJ1cmwoI2ZpbHRlcjJfZF8zMTA2XzI3MDY1KSI+JiN4YTs8cGF0aCBmaWxsPSJ1cmwoI3BhaW50M19yYWRpYWxfMzEwNl8yNzA2NSkiIGQ9Ik0zLjU3OTA1IDkuMzAyODlDMi4yOTU4OSA4LjkzODcgMS41NTA5MiA3LjYwMzI3IDEuOTE1MTEgNi4zMjAxMUMyLjI3OTI5IDUuMDM2OTYgNC44OTE3NSAyLjQ2NjA5IDYuMTc0OTEgMi44MzAyN0M3LjQ1ODA2IDMuMTk0NDYgNy45Njk5NCA1LjYwNDEgNy42MDU3NSA2Ljg4NzI1QzcuMjQxNTcgOC4xNzA0MSA1LjIzOTU4IDkuNzc0MTggMy41NzkwNSA5LjMwMjg5WiIvPiYjeGE7PC9nPiYjeGE7PC9nPiYjeGE7PC9nPiYjeGE7PC9nPiYjeGE7PGRlZnM+JiN4YTs8ZmlsdGVyIGNvbG9yLWludGVycG9sYXRpb24tZmlsdGVycz0ic1JHQiIgZmlsdGVyVW5pdHM9InVzZXJTcGFjZU9uVXNlIiBoZWlnaHQ9IjExLjY5ODciIHdpZHRoPSIxMi40Mjk0IiB5PSIxLjAxNzUiIHg9IjIuNTI0OTgiIGlkPSJmaWx0ZXIwX2RfMzEwNl8yNzA2NSI+JiN4YTs8ZmVGbG9vZCByZXN1bHQ9IkJhY2tncm91bmRJbWFnZUZpeCIgZmxvb2Qtb3BhY2l0eT0iMCIvPiYjeGE7PGZlQ29sb3JNYXRyaXggcmVzdWx0PSJoYXJkQWxwaGEiIHZhbHVlcz0iMCAwIDAgMCAwIDAgMCAwIDAgMCAwIDAgMCAwIDAgMCAwIDAgMTI3IDAiIHR5cGU9Im1hdHJpeCIgaW49IlNvdXJjZUFscGhhIi8+JiN4YTs8ZmVPZmZzZXQgZHk9IjAuMDQ0ODQwNSIgZHg9IjAuMjI0MjAyIi8+JiN4YTs8ZmVHYXVzc2lhbkJsdXIgc3RkRGV2aWF0aW9uPSIwLjMzNjMwNCIvPiYjeGE7PGZlQ29tcG9zaXRlIG9wZXJhdG9yPSJvdXQiIGluMj0iaGFyZEFscGhhIi8+JiN4YTs8ZmVDb2xvck1hdHJpeCB2YWx1ZXM9IjAgMCAwIDAgMCAwIDAgMCAwIDAgMCAwIDAgMCAwIDAgMCAwIDAuNCAwIiB0eXBlPSJtYXRyaXgiLz4mI3hhOzxmZUJsZW5kIHJlc3VsdD0iZWZmZWN0MV9kcm9wU2hhZG93XzMxMDZfMjcwNjUiIGluMj0iQmFja2dyb3VuZEltYWdlRml4IiBtb2RlPSJub3JtYWwiLz4mI3hhOzxmZUJsZW5kIHJlc3VsdD0ic2hhcGUiIGluMj0iZWZmZWN0MV9kcm9wU2hhZG93XzMxMDZfMjcwNjUiIGluPSJTb3VyY2VHcmFwaGljIiBtb2RlPSJub3JtYWwiLz4mI3hhOzwvZmlsdGVyPiYjeGE7PGZpbHRlciBjb2xvci1pbnRlcnBvbGF0aW9uLWZpbHRlcnM9InNSR0IiIGZpbHRlclVuaXRzPSJ1c2VyU3BhY2VPblVzZSIgaGVpZ2h0PSI4LjUwMjIiIHdpZHRoPSIxMi44NjAxIiB5PSIyLjE5MjU1IiB4PSIxLjYwMDkxIiBpZD0iZmlsdGVyMV9kXzMxMDZfMjcwNjUiPiYjeGE7PGZlRmxvb2QgcmVzdWx0PSJCYWNrZ3JvdW5kSW1hZ2VGaXgiIGZsb29kLW9wYWNpdHk9IjAiLz4mI3hhOzxmZUNvbG9yTWF0cml4IHJlc3VsdD0iaGFyZEFscGhhIiB2YWx1ZXM9IjAgMCAwIDAgMCAwIDAgMCAwIDAgMCAwIDAgMCAwIDAgMCAwIDEyNyAwIiB0eXBlPSJtYXRyaXgiIGluPSJTb3VyY2VBbHBoYSIvPiYjeGE7PGZlT2Zmc2V0IGR5PSIwLjA0NDg0MDUiIGR4PSIwLjIyNDIwMiIvPiYjeGE7PGZlR2F1c3NpYW5CbHVyIHN0ZERldmlhdGlvbj0iMC4zMzYzMDQiLz4mI3hhOzxmZUNvbXBvc2l0ZSBvcGVyYXRvcj0ib3V0IiBpbjI9ImhhcmRBbHBoYSIvPiYjeGE7PGZlQ29sb3JNYXRyaXggdmFsdWVzPSIwIDAgMCAwIDAgMCAwIDAgMCAwIDAgMCAwIDAgMCAwIDAgMCAwLjQgMCIgdHlwZT0ibWF0cml4Ii8+JiN4YTs8ZmVCbGVuZCByZXN1bHQ9ImVmZmVjdDFfZHJvcFNoYWRvd18zMTA2XzI3MDY1IiBpbjI9IkJhY2tncm91bmRJbWFnZUZpeCIgbW9kZT0ibm9ybWFsIi8+JiN4YTs8ZmVCbGVuZCByZXN1bHQ9InNoYXBlIiBpbjI9ImVmZmVjdDFfZHJvcFNoYWRvd18zMTA2XzI3MDY1IiBpbj0iU291cmNlR3JhcGhpYyIgbW9kZT0ibm9ybWFsIi8+JiN4YTs8L2ZpbHRlcj4mI3hhOzxmaWx0ZXIgY29sb3ItaW50ZXJwb2xhdGlvbi1maWx0ZXJzPSJzUkdCIiBmaWx0ZXJVbml0cz0idXNlclNwYWNlT25Vc2UiIGhlaWdodD0iNy45MzY3NyIgd2lkdGg9IjcuMjQyNjgiIHk9IjIuMTY3NjQiIHg9IjEuMzc0MzUiIGlkPSJmaWx0ZXIyX2RfMzEwNl8yNzA2NSI+JiN4YTs8ZmVGbG9vZCByZXN1bHQ9IkJhY2tncm91bmRJbWFnZUZpeCIgZmxvb2Qtb3BhY2l0eT0iMCIvPiYjeGE7PGZlQ29sb3JNYXRyaXggcmVzdWx0PSJoYXJkQWxwaGEiIHZhbHVlcz0iMCAwIDAgMCAwIDAgMCAwIDAgMCAwIDAgMCAwIDAgMCAwIDAgMTI3IDAiIHR5cGU9Im1hdHJpeCIgaW49IlNvdXJjZUFscGhhIi8+JiN4YTs8ZmVPZmZzZXQgZHk9IjAuMDQ0ODQwNSIgZHg9IjAuMjI0MjAyIi8+JiN4YTs8ZmVHYXVzc2lhbkJsdXIgc3RkRGV2aWF0aW9uPSIwLjMzNjMwNCIvPiYjeGE7PGZlQ29tcG9zaXRlIG9wZXJhdG9yPSJvdXQiIGluMj0iaGFyZEFscGhhIi8+JiN4YTs8ZmVDb2xvck1hdHJpeCB2YWx1ZXM9IjAgMCAwIDAgMCAwIDAgMCAwIDAgMCAwIDAgMCAwIDAgMCAwIDAuNCAwIiB0eXBlPSJtYXRyaXgiLz4mI3hhOzxmZUJsZW5kIHJlc3VsdD0iZWZmZWN0MV9kcm9wU2hhZG93XzMxMDZfMjcwNjUiIGluMj0iQmFja2dyb3VuZEltYWdlRml4IiBtb2RlPSJub3JtYWwiLz4mI3hhOzxmZUJsZW5kIHJlc3VsdD0ic2hhcGUiIGluMj0iZWZmZWN0MV9kcm9wU2hhZG93XzMxMDZfMjcwNjUiIGluPSJTb3VyY2VHcmFwaGljIiBtb2RlPSJub3JtYWwiLz4mI3hhOzwvZmlsdGVyPiYjeGE7PGxpbmVhckdyYWRpZW50IGdyYWRpZW50VW5pdHM9InVzZXJTcGFjZU9uVXNlIiB5Mj0iMTQuNDY4OSIgeDI9IjEzLjQ1MjEiIHkxPSIyLjUwODA0IiB4MT0iMS43MjEyNCIgaWQ9InBhaW50MF9saW5lYXJfMzEwNl8yNzA2NSI+JiN4YTs8c3RvcCBzdG9wLWNvbG9yPSJ3aGl0ZSIvPiYjeGE7PHN0b3Agc3RvcC1jb2xvcj0iI0VBRUNFRSIgb2Zmc2V0PSIxIi8+JiN4YTs8L2xpbmVhckdyYWRpZW50PiYjeGE7PHJhZGlhbEdyYWRpZW50IGdyYWRpZW50VHJhbnNmb3JtPSJ0cmFuc2xhdGUoOC4zMzg3IDUuMjU4NzgpIHJvdGF0ZSg3OS4wOTY3KSBzY2FsZSgxMC45MDQ0IDEwLjA5OCkiIGdyYWRpZW50VW5pdHM9InVzZXJTcGFjZU9uVXNlIiByPSIxIiBjeT0iMCIgY3g9IjAiIGlkPSJwYWludDFfcmFkaWFsXzMxMDZfMjcwNjUiPiYjeGE7PHN0b3Agc3RvcC1jb2xvcj0iIzEzNDhGRiIvPiYjeGE7PHN0b3Agc3RvcC1jb2xvcj0iIzA2MjM4RCIgb2Zmc2V0PSIxIi8+JiN4YTs8L3JhZGlhbEdyYWRpZW50PiYjeGE7PHJhZGlhbEdyYWRpZW50IGdyYWRpZW50VHJhbnNmb3JtPSJ0cmFuc2xhdGUoOS4yNTAwNSAxLjYzODAyKSByb3RhdGUoMTA4LjU0OSkgc2NhbGUoMTQuMzUxOCAyNS40NykiIGdyYWRpZW50VW5pdHM9InVzZXJTcGFjZU9uVXNlIiByPSIxIiBjeT0iMCIgY3g9IjAiIGlkPSJwYWludDJfcmFkaWFsXzMxMDZfMjcwNjUiPiYjeGE7PHN0b3Agc3RvcC1jb2xvcj0iIzAxOTVGRiIvPiYjeGE7PHN0b3Agc3RvcC1jb2xvcj0iIzExNDdFOSIgb2Zmc2V0PSIxIi8+JiN4YTs8L3JhZGlhbEdyYWRpZW50PiYjeGE7PHJhZGlhbEdyYWRpZW50IGdyYWRpZW50VHJhbnNmb3JtPSJ0cmFuc2xhdGUoNy4xNDEzNiAzLjc4NzA2KSByb3RhdGUoMTQ0Ljc0Nikgc2NhbGUoOC43MDE2NSAxMS44MzcxKSIgZ3JhZGllbnRVbml0cz0idXNlclNwYWNlT25Vc2UiIHI9IjEiIGN5PSIwIiBjeD0iMCIgaWQ9InBhaW50M19yYWRpYWxfMzEwNl8yNzA2NSI+JiN4YTs8c3RvcCBzdG9wLWNvbG9yPSIjMDBCQkZGIi8+JiN4YTs8c3RvcCBzdG9wLWNvbG9yPSIjMDA4QkZGIiBvZmZzZXQ9IjEiLz4mI3hhOzwvcmFkaWFsR3JhZGllbnQ+JiN4YTs8Y2xpcFBhdGggaWQ9ImNsaXAwXzMxMDZfMjcwNjUiPiYjeGE7PHJlY3QgdHJhbnNmb3JtPSJ0cmFuc2xhdGUoLTAuMDAwNzMyNDIyKSIgZmlsbD0id2hpdGUiIGhlaWdodD0iMTYiIHdpZHRoPSIxNiIvPiYjeGE7PC9jbGlwUGF0aD4mI3hhOzxjbGlwUGF0aCBpZD0iY2xpcDFfMzEwNl8yNzA2NSI+JiN4YTs8cmVjdCB0cmFuc2Zvcm09InRyYW5zbGF0ZSgzLjQ5OTI3IDMuMTY2NzUpIiBmaWxsPSJ3aGl0ZSIgaGVpZ2h0PSI5LjY2NjY3IiB3aWR0aD0iOS42NjY2NiIvPiYjeGE7PC9jbGlwUGF0aD4mI3hhOzwvZGVmcz4mI3hhOzwvc3ZnPg==;points=[[0,0,0,0,0],[0,0.25,0,0,0],[0,0.5,0,0,0],[0,0.75,0,0,0],[0.25,0,0,0,0],[0.5,0,0,0,0],[0.75,0,0,0,0],[1,0,0,0,0],[1,0.25,0,0,0],[1,0.5,0,0,0],[1,0.75,0,0,0]];pointerEvents=0;align=center;arcSize=24;fontFamily=Helvetica;fontSize=12;fontColor=default;fillColor=none;gradientColor=none;" parent="F_J2_1nYCTe2_NX2WGGC-77" vertex="1">
          <mxGeometry x="30.5" width="49" height="49" as="geometry" />
        </mxCell>
        <mxCell id="F_J2_1nYCTe2_NX2WGGC-96" style="edgeStyle=orthogonalEdgeStyle;rounded=0;orthogonalLoop=1;jettySize=auto;html=1;entryX=1;entryY=0.5;entryDx=0;entryDy=0;fontFamily=Helvetica;fontSize=12;fontColor=default;" parent="1" source="F_J2_1nYCTe2_NX2WGGC-80" target="F_J2_1nYCTe2_NX2WGGC-82" edge="1">
          <mxGeometry relative="1" as="geometry" />
        </mxCell>
        <mxCell id="F_J2_1nYCTe2_NX2WGGC-97" value="Zugriff&amp;nbsp;&lt;div&gt;auf UI&lt;/div&gt;" style="edgeLabel;html=1;align=center;verticalAlign=middle;resizable=0;points=[];pointerEvents=0;arcSize=24;fontFamily=Helvetica;fontSize=12;fontColor=default;fillColor=none;gradientColor=none;" parent="F_J2_1nYCTe2_NX2WGGC-96" vertex="1" connectable="0">
          <mxGeometry x="-0.7615" y="-2" relative="1" as="geometry">
            <mxPoint x="-29" y="7" as="offset" />
          </mxGeometry>
        </mxCell>
        <mxCell id="F_J2_1nYCTe2_NX2WGGC-80" value="" style="shape=image;verticalLabelPosition=bottom;labelBackgroundColor=default;verticalAlign=top;aspect=fixed;imageAspect=0;image=data:image/svg+xml,PHN2ZyB4bWxucz0iaHR0cDovL3d3dy53My5vcmcvMjAwMC9zdmciIGZpbGw9Im5vbmUiIHZpZXdCb3g9IjAgMCAxNyAxNyIgaGVpZ2h0PSIxNyIgd2lkdGg9IjE3Ij4mI3hhOzxwYXRoIGZpbGw9InVybCgjcGFpbnQwX2xpbmVhcl83NzVfOCkiIGQ9Ik0xMy42NzU2IDguNjM3NDhDMTQuNjQ2OSA5LjE3MTcxIDE1LjQ2NDcgOS45NDY0NiAxNi4wNTA2IDEwLjg4NzVDMTYuNjU0NiAxMS44NDU1IDE2Ljk1NjYgMTIuOTI4NSAxNi45NTY2IDE0LjEzNzVWMTUuOTE4NUMxNi45NTY2IDE2LjUwMTUgMTYuNjU0NiAxNi43OTM1IDE2LjA1MDYgMTYuNzkzNUg1LjQyNTY0QzUuMTU0NjQgMTYuNzkzNSA0LjkzNTY0IDE2LjcxMDUgNC43Njg2NCAxNi41NDM1QzQuNjAyNjQgMTYuMzk3NSA0LjUxODY0IDE2LjE4OTUgNC41MTg2NCAxNS45MTg1VjE1LjAxMjVIMS44NjI2NEMxLjI3OTY0IDE1LjAxMjUgMC45ODc2NCAxNC43MjA1IDAuOTg3NjQgMTQuMTM3NVYxMi4zNTY1QzAuOTg3NjQgMTEuNDgwNSAxLjIyNzY0IDEwLjY4OTUgMS43MDY2NCA5Ljk4MDQ4QzIuMTY0MzUgOS4yOTEwOSAyLjgwMjA3IDguNzQwMTcgMy41NTA2NCA4LjM4NzQ4QzMuMjg2MjIgOC4wODYyMyAzLjA4NDMxIDcuNzM1NDMgMi45NTY2NCA3LjM1NTQ4QzIuODMzNCA2Ljk3MTgxIDIuNzY5OTkgNi41NzE0NSAyLjc2ODY0IDYuMTY4NDhDMi43Njg2NCA1LjY2ODQ4IDIuODYyNjQgNS4yMTA0OCAzLjA1MDY0IDQuNzkzNDhDMy4yMzc2NCA0LjM1NTQ4IDMuNDg3NjQgMy45ODA0OCAzLjgwMDY0IDMuNjY4NDhDNC4xMjQ3OCAzLjM0MTYxIDQuNTA2MDggMy4wNzY5IDQuOTI1NjQgMi44ODc0OEM1LjM1OTkyIDIuNzAwNzMgNS44Mjc5MSAyLjYwNTA5IDYuMzAwNjQgMi42MDY0OEM2LjQ0NjY0IDIuNjA2NDggNi41ODE2NCAyLjYxNjQ4IDYuNzA2NjQgMi42MzY0OEM2LjgzMTY0IDIuNjM2NDggNi45NjY2NCAyLjY1ODQ4IDcuMTEyNjQgMi42OTk0OEM3LjUwMjE5IDIuMTIxOSA4LjAyODQ3IDEuNjQ5NTYgOC42NDQ2NCAxLjMyNDQ4QzkuMjkxNTggMC45OTA5MiAxMC4wMDk4IDAuODE5MzQzIDEwLjczNzYgMC44MjQ0NzZDMTEuMzYyNiAwLjgyNDQ3NiAxMS45NDY2IDAuOTM5NDc2IDEyLjQ4NzYgMS4xNjg0OEMxMy4wMjk2IDEuMzk4NDggMTMuNDk3NiAxLjcyMDQ4IDEzLjg5MzYgMi4xMzc0OEMxNC4yODk2IDIuNTMzNDggMTQuNjAyNiAzLjAwMTQ4IDE0LjgzMTYgMy41NDM0OEMxNS4wNjE2IDQuMDYzNDggMTUuMTc1NiA0LjYzNzQ4IDE1LjE3NTYgNS4yNjI0OEMxNS4xNzc3IDUuOTE5NDggMTUuMDM5MiA2LjU2OTMzIDE0Ljc2OTYgNy4xNjg0OEMxNC41MjkgNy43MzkzMiAxNC4xNTM2IDguMjQzMzYgMTMuNjc1NiA4LjYzNzQ4Wk0xMC43MzY2IDIuNjA1NDhDOS45ODY2NCAyLjYwNTQ4IDkuMzUxNjQgMi44NjU0OCA4LjgzMDY0IDMuMzg3NDhDOC4zMzA2NCAzLjg4NzQ4IDguMDgwNjQgNC41MTI0OCA4LjA4MDY0IDUuMjYyNDhDOC4wODA2NCA2LjAxMjQ4IDguMzMwNjQgNi42NDc0OCA4LjgzMDY0IDcuMTY4NDhDOS4zNTA2NCA3LjY2ODQ4IDkuOTg2NjQgNy45MTg0OCAxMC43MzY2IDcuOTE4NDhDMTEuNDg2NiA3LjkxODQ4IDEyLjExMTYgNy42Njg0OCAxMi42MTE2IDcuMTY4NDhDMTMuMTMyNiA2LjY0ODQ4IDEzLjM5MjYgNi4wMTI0OCAxMy4zOTI2IDUuMjYyNDhDMTMuMzkyNiA0LjUxMjQ4IDEzLjEzMjYgMy44ODc0OCAxMi42MTI2IDMuMzg3NDhDMTIuMTEyNiAyLjg2NjQ4IDExLjQ4NjYgMi42MDU0OCAxMC43MzY2IDIuNjA1NDhaTTYuMjA2NjQgNC4zODg0OEM1LjcyNjY0IDQuMzg4NDggNS4zMTA2NCA0LjU2NTQ4IDQuOTU2NjQgNC45MTk0OEM0LjYyMzY0IDUuMjUyNDggNC40NTY2NCA1LjY2OTQ4IDQuNDU2NjQgNi4xNjk0OEM0LjQ1NjY0IDYuNjQ5NDggNC42MjM2NCA3LjA2NTQ4IDQuOTU2NjQgNy40MTk0OEM1LjMxMDY0IDcuNzUyNDggNS43MjY2NCA3LjkxOTQ4IDYuMjA2NjQgNy45MTk0OEg3LjIwNjY0QzYuOTI3MDggNy41NDg5OCA2LjcwNTg1IDcuMTM3ODkgNi41NTA2NCA2LjcwMDQ4QzYuMzg3MDYgNi4yMzg5NSA2LjMwMjU0IDUuNzUzMTMgNi4zMDA2NCA1LjI2MzQ4VjQuODIzNDhDNi4zMTczMiA0LjY3NTEzIDYuMzQ4NDcgNC41Mjg3NiA2LjM5MzY0IDQuMzg2NDhINi4yMDY2NFY0LjM4ODQ4Wk0yLjc2ODY0IDEzLjI2MzVINC42MTI2NEM0LjgwMDY0IDExLjgyNTUgNS4zOTM2NCAxMC42Mzg1IDYuMzkzNjQgOS43MDA0N0g1LjQyNjY0QzQuNjc2NjQgOS43MDA0NyA0LjA0MDY0IDkuOTYwNDcgMy41MTk2NCAxMC40ODE1QzMuMDE5NjQgMTAuOTgxNSAyLjc2OTY0IDExLjYwNzUgMi43Njk2NCAxMi4zNTc1TDIuNzY4NjQgMTMuMjYzNVpNMTUuMTc1NiAxNC4xMzg1QzE1LjE4MjYgMTMuNTQ3NyAxNS4wNjU0IDEyLjk2MjEgMTQuODMxNiAxMi40MTk1QzE0LjYxMzMgMTEuODk0MyAxNC4yOTQ3IDExLjQxNjcgMTMuODkzNiAxMS4wMTM1QzEzLjQ5NzQgMTAuNTk2MyAxMy4wMTg1IDEwLjI2NjMgMTIuNDg3NiAxMC4wNDQ1QzExLjkzMzUgOS44MTI3MyAxMS4zMzgyIDkuNjk1NzEgMTAuNzM3NiA5LjcwMDQ3QzEwLjExMjYgOS43MDA0NyA5LjUyOTY0IDkuODE1NDggOC45ODc2NCAxMC4wNDQ1QzguNDY3NjQgMTAuMjc0NSA3Ljk5NzY0IDEwLjU5NjUgNy41ODE2NCAxMS4wMTM1QzcuMTgwNTggMTEuNDE2NyA2Ljg2MTk3IDExLjg5NDMgNi42NDM2NCAxMi40MTk1QzYuNDEwMjggMTIuOTYyMiA2LjI5MzQzIDEzLjU0NzggNi4zMDA2NCAxNC4xMzg1VjE1LjAxMzVIMTUuMTc1NlYxNC4xMzg1WiIvPiYjeGE7PGRlZnM+JiN4YTs8bGluZWFyR3JhZGllbnQgZ3JhZGllbnRVbml0cz0idXNlclNwYWNlT25Vc2UiIHkyPSIxNi43OTM1IiB4Mj0iOC45NzIxNCIgeTE9IjAuODI0MzY0IiB4MT0iOC45NzIxNCIgaWQ9InBhaW50MF9saW5lYXJfNzc1XzgiPiYjeGE7PHN0b3Agc3RvcC1jb2xvcj0iIzVCNzM4QiIvPiYjeGE7PHN0b3Agc3RvcC1jb2xvcj0iIzIyMzU0OCIgb2Zmc2V0PSIxIi8+JiN4YTs8L2xpbmVhckdyYWRpZW50PiYjeGE7PC9kZWZzPiYjeGE7PC9zdmc+;pointerEvents=0;align=center;arcSize=24;fontFamily=Helvetica;fontSize=12;fontColor=default;fillColor=none;gradientColor=none;" parent="1" vertex="1">
          <mxGeometry x="1069.9999999999998" y="145" width="50" height="50" as="geometry" />
        </mxCell>
        <mxCell id="F_J2_1nYCTe2_NX2WGGC-82" value="" style="rounded=1;whiteSpace=wrap;html=1;strokeColor=#0070F2;strokeWidth=1.5;arcSize=16;fillColor=#ffffff;perimeterSpacing=0;absoluteArcSize=1;" parent="1" vertex="1">
          <mxGeometry x="535" y="150" width="360" height="40" as="geometry" />
        </mxCell>
        <mxCell id="F_J2_1nYCTe2_NX2WGGC-83" value="&lt;div&gt;Process Visibility&lt;/div&gt;" style="text;html=1;align=center;verticalAlign=middle;resizable=0;points=[];autosize=1;strokeColor=none;fillColor=none;fontSize=15;fontColor=default;fontFamily=Helvetica;" parent="1" vertex="1">
          <mxGeometry x="644.9999999999998" y="155" width="140" height="30" as="geometry" />
        </mxCell>
        <mxCell id="F_J2_1nYCTe2_NX2WGGC-84" value="" style="rounded=1;whiteSpace=wrap;html=1;strokeColor=#0070F2;strokeWidth=1.5;arcSize=16;fillColor=#ffffff;perimeterSpacing=0;absoluteArcSize=1;" parent="1" vertex="1">
          <mxGeometry x="535" y="200" width="360" height="50" as="geometry" />
        </mxCell>
        <mxCell id="F_J2_1nYCTe2_NX2WGGC-85" value="&lt;div&gt;Form, Process and Decision&lt;/div&gt;" style="text;html=1;align=center;verticalAlign=middle;resizable=0;points=[];autosize=1;strokeColor=none;fillColor=none;fontSize=15;fontColor=default;fontFamily=Helvetica;" parent="1" vertex="1">
          <mxGeometry x="609.9999999999998" y="210" width="210" height="30" as="geometry" />
        </mxCell>
        <mxCell id="F_J2_1nYCTe2_NX2WGGC-87" style="edgeStyle=orthogonalEdgeStyle;rounded=0;orthogonalLoop=1;jettySize=auto;html=1;entryX=1;entryY=0.5;entryDx=0;entryDy=0;fontFamily=Helvetica;fontSize=12;fontColor=default;" parent="1" source="F_J2_1nYCTe2_NX2WGGC-86" target="F_J2_1nYCTe2_NX2WGGC-84" edge="1">
          <mxGeometry relative="1" as="geometry" />
        </mxCell>
        <mxCell id="F_J2_1nYCTe2_NX2WGGC-86" value="" style="image;aspect=fixed;html=1;points=[];align=center;fontSize=12;image=img/lib/azure2/other/API_Proxy.svg;pointerEvents=0;verticalAlign=top;arcSize=24;fontFamily=Helvetica;fontColor=default;fillColor=none;gradientColor=none;" parent="1" vertex="1">
          <mxGeometry x="986" y="201" width="48" height="48" as="geometry" />
        </mxCell>
        <mxCell id="F_J2_1nYCTe2_NX2WGGC-88" value="&lt;div style=&quot;&quot;&gt;&lt;span style=&quot;font-size: 10px;&quot;&gt;Manuell per API&lt;/span&gt;&lt;/div&gt;&lt;div style=&quot;&quot;&gt;&lt;span style=&quot;font-size: 10px;&quot;&gt;&amp;nbsp;möglich&lt;/span&gt;&lt;/div&gt;" style="text;html=1;align=center;verticalAlign=middle;resizable=0;points=[];autosize=1;strokeColor=none;fillColor=none;fontSize=12;fontColor=default;fontFamily=Helvetica;" parent="1" vertex="1">
          <mxGeometry x="964.9999999999998" y="240" width="90" height="40" as="geometry" />
        </mxCell>
        <mxCell id="F_J2_1nYCTe2_NX2WGGC-89" value="RAP&amp;nbsp;&lt;div&gt;Anwendung&lt;/div&gt;" style="rounded=1;whiteSpace=wrap;html=1;strokeColor=#0070F2;strokeWidth=1.5;arcSize=16;fillColor=#ffffff;perimeterSpacing=0;absoluteArcSize=1;align=left;verticalAlign=top;spacingTop=3;spacingLeft=3;" parent="1" vertex="1">
          <mxGeometry x="535" y="382" width="360" height="96" as="geometry" />
        </mxCell>
        <mxCell id="F_J2_1nYCTe2_NX2WGGC-92" style="edgeStyle=orthogonalEdgeStyle;rounded=0;orthogonalLoop=1;jettySize=auto;html=1;entryX=0;entryY=0.5;entryDx=0;entryDy=0;fontFamily=Helvetica;fontSize=12;fontColor=default;endArrow=none;startFill=0;dashed=1;" parent="1" source="F_J2_1nYCTe2_NX2WGGC-90" target="F_J2_1nYCTe2_NX2WGGC-91" edge="1">
          <mxGeometry relative="1" as="geometry" />
        </mxCell>
        <mxCell id="F_J2_1nYCTe2_NX2WGGC-90" value="Lastgang" style="rounded=1;whiteSpace=wrap;html=1;strokeColor=#0070F2;fillColor=#EBF8FF;arcSize=24;absoluteArcSize=1;imageWidth=64;imageHeight=64;strokeWidth=1.5;fontStyle=2" parent="1" vertex="1">
          <mxGeometry x="630" y="396" width="85" height="70" as="geometry" />
        </mxCell>
        <mxCell id="F_J2_1nYCTe2_NX2WGGC-99" style="edgeStyle=orthogonalEdgeStyle;rounded=0;orthogonalLoop=1;jettySize=auto;html=1;exitX=0.5;exitY=0;exitDx=0;exitDy=0;entryX=0.75;entryY=1;entryDx=0;entryDy=0;fontFamily=Helvetica;fontSize=12;fontColor=default;flowAnimation=1;" parent="1" source="F_J2_1nYCTe2_NX2WGGC-91" target="F_J2_1nYCTe2_NX2WGGC-84" edge="1">
          <mxGeometry relative="1" as="geometry" />
        </mxCell>
        <mxCell id="F_J2_1nYCTe2_NX2WGGC-100" value="&amp;gt;1GWh" style="edgeLabel;html=1;align=center;verticalAlign=middle;resizable=0;points=[];pointerEvents=0;arcSize=24;fontFamily=Helvetica;fontSize=12;fontColor=default;fillColor=none;gradientColor=none;" parent="F_J2_1nYCTe2_NX2WGGC-99" vertex="1" connectable="0">
          <mxGeometry x="-0.2763" y="1" relative="1" as="geometry">
            <mxPoint as="offset" />
          </mxGeometry>
        </mxCell>
        <mxCell id="F_J2_1nYCTe2_NX2WGGC-91" value="Logik" style="rounded=1;whiteSpace=wrap;html=1;strokeColor=#0070F2;fillColor=#EBF8FF;arcSize=24;absoluteArcSize=1;imageWidth=64;imageHeight=64;strokeWidth=1.5;fontStyle=2" parent="1" vertex="1">
          <mxGeometry x="762" y="396" width="85" height="70" as="geometry" />
        </mxCell>
        <mxCell id="F_J2_1nYCTe2_NX2WGGC-94" style="edgeStyle=orthogonalEdgeStyle;rounded=0;orthogonalLoop=1;jettySize=auto;html=1;entryX=0.25;entryY=1;entryDx=0;entryDy=0;fontFamily=Helvetica;fontSize=12;fontColor=default;" parent="1" source="F_J2_1nYCTe2_NX2WGGC-93" target="F_J2_1nYCTe2_NX2WGGC-89" edge="1">
          <mxGeometry relative="1" as="geometry" />
        </mxCell>
        <mxCell id="F_J2_1nYCTe2_NX2WGGC-95" value="Zugriff&amp;nbsp;&lt;div&gt;auf UI&lt;/div&gt;" style="edgeLabel;html=1;align=center;verticalAlign=middle;resizable=0;points=[];pointerEvents=0;arcSize=24;fontFamily=Helvetica;fontSize=12;fontColor=default;fillColor=none;gradientColor=none;" parent="F_J2_1nYCTe2_NX2WGGC-94" vertex="1" connectable="0">
          <mxGeometry x="-0.3465" y="1" relative="1" as="geometry">
            <mxPoint x="1" y="7" as="offset" />
          </mxGeometry>
        </mxCell>
        <mxCell id="F_J2_1nYCTe2_NX2WGGC-93" value="" style="shape=image;verticalLabelPosition=bottom;labelBackgroundColor=default;verticalAlign=top;aspect=fixed;imageAspect=0;image=data:image/svg+xml,PHN2ZyB4bWxucz0iaHR0cDovL3d3dy53My5vcmcvMjAwMC9zdmciIGZpbGw9Im5vbmUiIHZpZXdCb3g9IjAgMCAxNyAxNyIgaGVpZ2h0PSIxNyIgd2lkdGg9IjE3Ij4mI3hhOzxwYXRoIGZpbGw9InVybCgjcGFpbnQwX2xpbmVhcl83NzVfOCkiIGQ9Ik0xMy42NzU2IDguNjM3NDhDMTQuNjQ2OSA5LjE3MTcxIDE1LjQ2NDcgOS45NDY0NiAxNi4wNTA2IDEwLjg4NzVDMTYuNjU0NiAxMS44NDU1IDE2Ljk1NjYgMTIuOTI4NSAxNi45NTY2IDE0LjEzNzVWMTUuOTE4NUMxNi45NTY2IDE2LjUwMTUgMTYuNjU0NiAxNi43OTM1IDE2LjA1MDYgMTYuNzkzNUg1LjQyNTY0QzUuMTU0NjQgMTYuNzkzNSA0LjkzNTY0IDE2LjcxMDUgNC43Njg2NCAxNi41NDM1QzQuNjAyNjQgMTYuMzk3NSA0LjUxODY0IDE2LjE4OTUgNC41MTg2NCAxNS45MTg1VjE1LjAxMjVIMS44NjI2NEMxLjI3OTY0IDE1LjAxMjUgMC45ODc2NCAxNC43MjA1IDAuOTg3NjQgMTQuMTM3NVYxMi4zNTY1QzAuOTg3NjQgMTEuNDgwNSAxLjIyNzY0IDEwLjY4OTUgMS43MDY2NCA5Ljk4MDQ4QzIuMTY0MzUgOS4yOTEwOSAyLjgwMjA3IDguNzQwMTcgMy41NTA2NCA4LjM4NzQ4QzMuMjg2MjIgOC4wODYyMyAzLjA4NDMxIDcuNzM1NDMgMi45NTY2NCA3LjM1NTQ4QzIuODMzNCA2Ljk3MTgxIDIuNzY5OTkgNi41NzE0NSAyLjc2ODY0IDYuMTY4NDhDMi43Njg2NCA1LjY2ODQ4IDIuODYyNjQgNS4yMTA0OCAzLjA1MDY0IDQuNzkzNDhDMy4yMzc2NCA0LjM1NTQ4IDMuNDg3NjQgMy45ODA0OCAzLjgwMDY0IDMuNjY4NDhDNC4xMjQ3OCAzLjM0MTYxIDQuNTA2MDggMy4wNzY5IDQuOTI1NjQgMi44ODc0OEM1LjM1OTkyIDIuNzAwNzMgNS44Mjc5MSAyLjYwNTA5IDYuMzAwNjQgMi42MDY0OEM2LjQ0NjY0IDIuNjA2NDggNi41ODE2NCAyLjYxNjQ4IDYuNzA2NjQgMi42MzY0OEM2LjgzMTY0IDIuNjM2NDggNi45NjY2NCAyLjY1ODQ4IDcuMTEyNjQgMi42OTk0OEM3LjUwMjE5IDIuMTIxOSA4LjAyODQ3IDEuNjQ5NTYgOC42NDQ2NCAxLjMyNDQ4QzkuMjkxNTggMC45OTA5MiAxMC4wMDk4IDAuODE5MzQzIDEwLjczNzYgMC44MjQ0NzZDMTEuMzYyNiAwLjgyNDQ3NiAxMS45NDY2IDAuOTM5NDc2IDEyLjQ4NzYgMS4xNjg0OEMxMy4wMjk2IDEuMzk4NDggMTMuNDk3NiAxLjcyMDQ4IDEzLjg5MzYgMi4xMzc0OEMxNC4yODk2IDIuNTMzNDggMTQuNjAyNiAzLjAwMTQ4IDE0LjgzMTYgMy41NDM0OEMxNS4wNjE2IDQuMDYzNDggMTUuMTc1NiA0LjYzNzQ4IDE1LjE3NTYgNS4yNjI0OEMxNS4xNzc3IDUuOTE5NDggMTUuMDM5MiA2LjU2OTMzIDE0Ljc2OTYgNy4xNjg0OEMxNC41MjkgNy43MzkzMiAxNC4xNTM2IDguMjQzMzYgMTMuNjc1NiA4LjYzNzQ4Wk0xMC43MzY2IDIuNjA1NDhDOS45ODY2NCAyLjYwNTQ4IDkuMzUxNjQgMi44NjU0OCA4LjgzMDY0IDMuMzg3NDhDOC4zMzA2NCAzLjg4NzQ4IDguMDgwNjQgNC41MTI0OCA4LjA4MDY0IDUuMjYyNDhDOC4wODA2NCA2LjAxMjQ4IDguMzMwNjQgNi42NDc0OCA4LjgzMDY0IDcuMTY4NDhDOS4zNTA2NCA3LjY2ODQ4IDkuOTg2NjQgNy45MTg0OCAxMC43MzY2IDcuOTE4NDhDMTEuNDg2NiA3LjkxODQ4IDEyLjExMTYgNy42Njg0OCAxMi42MTE2IDcuMTY4NDhDMTMuMTMyNiA2LjY0ODQ4IDEzLjM5MjYgNi4wMTI0OCAxMy4zOTI2IDUuMjYyNDhDMTMuMzkyNiA0LjUxMjQ4IDEzLjEzMjYgMy44ODc0OCAxMi42MTI2IDMuMzg3NDhDMTIuMTEyNiAyLjg2NjQ4IDExLjQ4NjYgMi42MDU0OCAxMC43MzY2IDIuNjA1NDhaTTYuMjA2NjQgNC4zODg0OEM1LjcyNjY0IDQuMzg4NDggNS4zMTA2NCA0LjU2NTQ4IDQuOTU2NjQgNC45MTk0OEM0LjYyMzY0IDUuMjUyNDggNC40NTY2NCA1LjY2OTQ4IDQuNDU2NjQgNi4xNjk0OEM0LjQ1NjY0IDYuNjQ5NDggNC42MjM2NCA3LjA2NTQ4IDQuOTU2NjQgNy40MTk0OEM1LjMxMDY0IDcuNzUyNDggNS43MjY2NCA3LjkxOTQ4IDYuMjA2NjQgNy45MTk0OEg3LjIwNjY0QzYuOTI3MDggNy41NDg5OCA2LjcwNTg1IDcuMTM3ODkgNi41NTA2NCA2LjcwMDQ4QzYuMzg3MDYgNi4yMzg5NSA2LjMwMjU0IDUuNzUzMTMgNi4zMDA2NCA1LjI2MzQ4VjQuODIzNDhDNi4zMTczMiA0LjY3NTEzIDYuMzQ4NDcgNC41Mjg3NiA2LjM5MzY0IDQuMzg2NDhINi4yMDY2NFY0LjM4ODQ4Wk0yLjc2ODY0IDEzLjI2MzVINC42MTI2NEM0LjgwMDY0IDExLjgyNTUgNS4zOTM2NCAxMC42Mzg1IDYuMzkzNjQgOS43MDA0N0g1LjQyNjY0QzQuNjc2NjQgOS43MDA0NyA0LjA0MDY0IDkuOTYwNDcgMy41MTk2NCAxMC40ODE1QzMuMDE5NjQgMTAuOTgxNSAyLjc2OTY0IDExLjYwNzUgMi43Njk2NCAxMi4zNTc1TDIuNzY4NjQgMTMuMjYzNVpNMTUuMTc1NiAxNC4xMzg1QzE1LjE4MjYgMTMuNTQ3NyAxNS4wNjU0IDEyLjk2MjEgMTQuODMxNiAxMi40MTk1QzE0LjYxMzMgMTEuODk0MyAxNC4yOTQ3IDExLjQxNjcgMTMuODkzNiAxMS4wMTM1QzEzLjQ5NzQgMTAuNTk2MyAxMy4wMTg1IDEwLjI2NjMgMTIuNDg3NiAxMC4wNDQ1QzExLjkzMzUgOS44MTI3MyAxMS4zMzgyIDkuNjk1NzEgMTAuNzM3NiA5LjcwMDQ3QzEwLjExMjYgOS43MDA0NyA5LjUyOTY0IDkuODE1NDggOC45ODc2NCAxMC4wNDQ1QzguNDY3NjQgMTAuMjc0NSA3Ljk5NzY0IDEwLjU5NjUgNy41ODE2NCAxMS4wMTM1QzcuMTgwNTggMTEuNDE2NyA2Ljg2MTk3IDExLjg5NDMgNi42NDM2NCAxMi40MTk1QzYuNDEwMjggMTIuOTYyMiA2LjI5MzQzIDEzLjU0NzggNi4zMDA2NCAxNC4xMzg1VjE1LjAxMzVIMTUuMTc1NlYxNC4xMzg1WiIvPiYjeGE7PGRlZnM+JiN4YTs8bGluZWFyR3JhZGllbnQgZ3JhZGllbnRVbml0cz0idXNlclNwYWNlT25Vc2UiIHkyPSIxNi43OTM1IiB4Mj0iOC45NzIxNCIgeTE9IjAuODI0MzY0IiB4MT0iOC45NzIxNCIgaWQ9InBhaW50MF9saW5lYXJfNzc1XzgiPiYjeGE7PHN0b3Agc3RvcC1jb2xvcj0iIzVCNzM4QiIvPiYjeGE7PHN0b3Agc3RvcC1jb2xvcj0iIzIyMzU0OCIgb2Zmc2V0PSIxIi8+JiN4YTs8L2xpbmVhckdyYWRpZW50PiYjeGE7PC9kZWZzPiYjeGE7PC9zdmc+;pointerEvents=0;align=center;arcSize=24;fontFamily=Helvetica;fontSize=12;fontColor=default;fillColor=none;gradientColor=none;" parent="1" vertex="1">
          <mxGeometry x="599.9999999999998" y="590" width="50" height="50" as="geometry" />
        </mxCell>
        <mxCell id="F_J2_1nYCTe2_NX2WGGC-101" style="edgeStyle=orthogonalEdgeStyle;rounded=0;orthogonalLoop=1;jettySize=auto;html=1;entryX=0.25;entryY=0;entryDx=0;entryDy=0;fontFamily=Helvetica;fontSize=12;fontColor=default;flowAnimation=1;" parent="1" source="F_J2_1nYCTe2_NX2WGGC-57" target="F_J2_1nYCTe2_NX2WGGC-90" edge="1">
          <mxGeometry relative="1" as="geometry">
            <Array as="points">
              <mxPoint x="340" y="441" />
              <mxPoint x="340" y="360" />
              <mxPoint x="651" y="360" />
              <mxPoint x="651" y="396" />
            </Array>
          </mxGeometry>
        </mxCell>
        <mxCell id="F_J2_1nYCTe2_NX2WGGC-102" style="edgeStyle=orthogonalEdgeStyle;rounded=0;orthogonalLoop=1;jettySize=auto;html=1;exitX=0.486;exitY=1;exitDx=0;exitDy=0;entryX=0.5;entryY=0;entryDx=0;entryDy=0;fontFamily=Helvetica;fontSize=12;fontColor=default;flowAnimation=1;exitPerimeter=0;" parent="1" source="F_J2_1nYCTe2_NX2WGGC-84" target="F_J2_1nYCTe2_NX2WGGC-90" edge="1">
          <mxGeometry relative="1" as="geometry">
            <mxPoint x="815" y="406" as="sourcePoint" />
            <mxPoint x="815" y="260" as="targetPoint" />
            <Array as="points">
              <mxPoint x="710" y="350" />
              <mxPoint x="673" y="350" />
            </Array>
          </mxGeometry>
        </mxCell>
        <mxCell id="F_J2_1nYCTe2_NX2WGGC-103" value="Status&amp;nbsp;&lt;div&gt;Rückmeldung&lt;/div&gt;" style="edgeLabel;html=1;align=center;verticalAlign=middle;resizable=0;points=[];pointerEvents=0;arcSize=24;fontFamily=Helvetica;fontSize=12;fontColor=default;fillColor=none;gradientColor=none;" parent="F_J2_1nYCTe2_NX2WGGC-102" vertex="1" connectable="0">
          <mxGeometry x="-0.2763" y="1" relative="1" as="geometry">
            <mxPoint x="-1" y="8" as="offset" />
          </mxGeometry>
        </mxCell>
      </root>
    </mxGraphModel>
  </diagram>
</mxfile>
